<svg id="visual" viewBox="0 0 960 540" width="960" height="540" xmlns="http://www.w3.org/2000/svg" xmlns:xlink="http://www.w3.org/1999/xlink" version="1.1"><rect x="0" y="0" width="960" height="540" fill="#111415"></rect><path d="M0 168L10.7 165.5C21.3 163 42.7 158 64 154C85.3 150 106.7 147 128 145.3C149.3 143.7 170.7 143.3 192 133.3C213.3 123.3 234.7 103.7 256 91.7C277.3 79.7 298.7 75.3 320 78.5C341.3 81.7 362.7 92.3 384 108.3C405.3 124.3 426.7 145.7 448 142C469.3 138.3 490.7 109.7 512 107.7C533.3 105.7 554.7 130.3 576 126.5C597.3 122.7 618.7 90.3 640 74.8C661.3 59.3 682.7 60.7 704 59.7C725.3 58.7 746.7 55.3 768 62.3C789.3 69.3 810.7 86.7 832 97.5C853.3 108.3 874.7 112.7 896 120.2C917.3 127.7 938.7 138.3 949.3 143.7L960 149L960 0L949.3 0C938.7 0 917.3 0 896 0C874.7 0 853.3 0 832 0C810.7 0 789.3 0 768 0C746.7 0 725.3 0 704 0C682.7 0 661.3 0 640 0C618.7 0 597.3 0 576 0C554.7 0 533.3 0 512 0C490.7 0 469.3 0 448 0C426.7 0 405.3 0 384 0C362.7 0 341.3 0 320 0C298.7 0 277.3 0 256 0C234.7 0 213.3 0 192 0C170.7 0 149.3 0 128 0C106.7 0 85.3 0 64 0C42.7 0 21.3 0 10.7 0L0 0Z" fill="#286a91" stroke-linecap="round" stroke-linejoin="miter"></path></svg>