<svg id="visual" viewBox="0 0 280 400" width="280" height="400" xmlns="http://www.w3.org/2000/svg" xmlns:xlink="http://www.w3.org/1999/xlink" version="1.1"><rect x="0" y="0" width="280" height="400" fill="#111415"></rect><path d="M0 165L9.3 167.2C18.7 169.3 37.3 173.7 56 165.3C74.7 157 93.3 136 112 123.2C130.7 110.3 149.3 105.7 168 116.2C186.7 126.7 205.3 152.3 224 151.8C242.7 151.3 261.3 124.7 270.7 111.3L280 98L280 0L270.7 0C261.3 0 242.7 0 224 0C205.3 0 186.7 0 168 0C149.3 0 130.7 0 112 0C93.3 0 74.7 0 56 0C37.3 0 18.7 0 9.3 0L0 0Z" fill="#385057" stroke-linecap="round" stroke-linejoin="miter"></path></svg>