<svg id="visual" viewBox="0 0 280 400" width="280" height="400" xmlns="http://www.w3.org/2000/svg" xmlns:xlink="http://www.w3.org/1999/xlink" version="1.1"><rect x="0" y="0" width="280" height="400" fill="#111415"></rect><path d="M0 111L9.3 125.5C18.7 140 37.3 169 56 176.7C74.7 184.3 93.3 170.7 112 146.8C130.7 123 149.3 89 168 76C186.7 63 205.3 71 224 91.3C242.7 111.7 261.3 144.3 270.7 160.7L280 177L280 0L270.7 0C261.3 0 242.7 0 224 0C205.3 0 186.7 0 168 0C149.3 0 130.7 0 112 0C93.3 0 74.7 0 56 0C37.3 0 18.7 0 9.3 0L0 0Z" fill="#385057" stroke-linecap="round" stroke-linejoin="miter"></path></svg>