<svg id="visual" viewBox="0 0 960 540" width="960" height="540" xmlns="http://www.w3.org/2000/svg" xmlns:xlink="http://www.w3.org/1999/xlink" version="1.1"><rect x="0" y="0" width="960" height="540" fill="#111415"></rect><path d="M0 401L13.3 405.2C26.7 409.3 53.3 417.7 80 419.8C106.7 422 133.3 418 160 414.8C186.7 411.7 213.3 409.3 240 402.3C266.7 395.3 293.3 383.7 320 390.7C346.7 397.7 373.3 423.3 400 426.3C426.7 429.3 453.3 409.7 480 410.3C506.7 411 533.3 432 560 429.5C586.7 427 613.3 401 640 395.5C666.7 390 693.3 405 720 418C746.7 431 773.3 442 800 446.3C826.7 450.7 853.3 448.3 880 437.7C906.7 427 933.3 408 946.7 398.5L960 389L960 541L946.7 541C933.3 541 906.7 541 880 541C853.3 541 826.7 541 800 541C773.3 541 746.7 541 720 541C693.3 541 666.7 541 640 541C613.3 541 586.7 541 560 541C533.3 541 506.7 541 480 541C453.3 541 426.7 541 400 541C373.3 541 346.7 541 320 541C293.3 541 266.7 541 240 541C213.3 541 186.7 541 160 541C133.3 541 106.7 541 80 541C53.3 541 26.7 541 13.3 541L0 541Z" fill="#286a91"></path><path d="M0 419L13.3 427.3C26.7 435.7 53.3 452.3 80 460.5C106.7 468.7 133.3 468.3 160 466.7C186.7 465 213.3 462 240 458.8C266.7 455.7 293.3 452.3 320 453.2C346.7 454 373.3 459 400 462.8C426.7 466.7 453.3 469.3 480 463.7C506.7 458 533.3 444 560 435.5C586.7 427 613.3 424 640 418.2C666.7 412.3 693.3 403.7 720 401C746.7 398.3 773.3 401.7 800 406.7C826.7 411.7 853.3 418.3 880 420.8C906.7 423.3 933.3 421.7 946.7 420.8L960 420L960 541L946.7 541C933.3 541 906.7 541 880 541C853.3 541 826.7 541 800 541C773.3 541 746.7 541 720 541C693.3 541 666.7 541 640 541C613.3 541 586.7 541 560 541C533.3 541 506.7 541 480 541C453.3 541 426.7 541 400 541C373.3 541 346.7 541 320 541C293.3 541 266.7 541 240 541C213.3 541 186.7 541 160 541C133.3 541 106.7 541 80 541C53.3 541 26.7 541 13.3 541L0 541Z" fill="#274a6f"></path><path d="M0 491L13.3 482.8C26.7 474.7 53.3 458.3 80 457.8C106.7 457.3 133.3 472.7 160 473.8C186.7 475 213.3 462 240 457.8C266.7 453.7 293.3 458.3 320 464.5C346.7 470.7 373.3 478.3 400 482.5C426.7 486.7 453.3 487.3 480 488.5C506.7 489.7 533.3 491.3 560 483.8C586.7 476.3 613.3 459.7 640 453.7C666.7 447.7 693.3 452.3 720 453.7C746.7 455 773.3 453 800 457.7C826.7 462.3 853.3 473.7 880 480.3C906.7 487 933.3 489 946.7 490L960 491L960 541L946.7 541C933.3 541 906.7 541 880 541C853.3 541 826.7 541 800 541C773.3 541 746.7 541 720 541C693.3 541 666.7 541 640 541C613.3 541 586.7 541 560 541C533.3 541 506.7 541 480 541C453.3 541 426.7 541 400 541C373.3 541 346.7 541 320 541C293.3 541 266.7 541 240 541C213.3 541 186.7 541 160 541C133.3 541 106.7 541 80 541C53.3 541 26.7 541 13.3 541L0 541Z" fill="#202d4d"></path><path d="M0 499L13.3 499.3C26.7 499.7 53.3 500.3 80 500.5C106.7 500.7 133.3 500.3 160 502.5C186.7 504.7 213.3 509.3 240 512.3C266.7 515.3 293.3 516.7 320 511.7C346.7 506.7 373.3 495.3 400 491.2C426.7 487 453.3 490 480 488C506.7 486 533.3 479 560 477C586.7 475 613.3 478 640 477.7C666.7 477.3 693.3 473.7 720 474.8C746.7 476 773.3 482 800 484.7C826.7 487.3 853.3 486.7 880 491.2C906.7 495.7 933.3 505.3 946.7 510.2L960 515L960 541L946.7 541C933.3 541 906.7 541 880 541C853.3 541 826.7 541 800 541C773.3 541 746.7 541 720 541C693.3 541 666.7 541 640 541C613.3 541 586.7 541 560 541C533.3 541 506.7 541 480 541C453.3 541 426.7 541 400 541C373.3 541 346.7 541 320 541C293.3 541 266.7 541 240 541C213.3 541 186.7 541 160 541C133.3 541 106.7 541 80 541C53.3 541 26.7 541 13.3 541L0 541Z" fill="#15122b"></path></svg>