<svg id="visual" viewBox="0 0 280 400" width="280" height="400" xmlns="http://www.w3.org/2000/svg" xmlns:xlink="http://www.w3.org/1999/xlink" version="1.1"><rect x="0" y="0" width="280" height="400" fill="#111415"></rect><path d="M0 68L9.3 73C18.7 78 37.3 88 56 88C74.7 88 93.3 78 112 70.8C130.7 63.7 149.3 59.3 168 64.3C186.7 69.3 205.3 83.7 224 91C242.7 98.3 261.3 98.7 270.7 98.8L280 99L280 0L270.7 0C261.3 0 242.7 0 224 0C205.3 0 186.7 0 168 0C149.3 0 130.7 0 112 0C93.3 0 74.7 0 56 0C37.3 0 18.7 0 9.3 0L0 0Z" fill="#385057" stroke-linecap="round" stroke-linejoin="miter"></path></svg>