<svg id="visual" viewBox="0 0 960 540" width="960" height="540" xmlns="http://www.w3.org/2000/svg" xmlns:xlink="http://www.w3.org/1999/xlink" version="1.1"><rect x="0" y="0" width="960" height="540" fill="#111415"></rect><path d="M0 472L11.5 472.8C23 473.7 46 475.3 68.8 475.3C91.7 475.3 114.3 473.7 137.2 470.3C160 467 183 462 205.8 457.2C228.7 452.3 251.3 447.7 274.2 448.8C297 450 320 457 342.8 460.3C365.7 463.7 388.3 463.3 411.2 463.8C434 464.3 457 465.7 480 465C503 464.3 526 461.7 548.8 459.2C571.7 456.7 594.3 454.3 617.2 451.2C640 448 663 444 685.8 449.2C708.7 454.3 731.3 468.7 754.2 475.5C777 482.3 800 481.7 822.8 481.5C845.7 481.3 868.3 481.7 891.2 477.2C914 472.7 937 463.3 948.5 458.7L960 454L960 541L948.5 541C937 541 914 541 891.2 541C868.3 541 845.7 541 822.8 541C800 541 777 541 754.2 541C731.3 541 708.7 541 685.8 541C663 541 640 541 617.2 541C594.3 541 571.7 541 548.8 541C526 541 503 541 480 541C457 541 434 541 411.2 541C388.3 541 365.7 541 342.8 541C320 541 297 541 274.2 541C251.3 541 228.7 541 205.8 541C183 541 160 541 137.2 541C114.3 541 91.7 541 68.8 541C46 541 23 541 11.5 541L0 541Z" fill="#286a91"></path><path d="M0 478L11.5 481.7C23 485.3 46 492.7 68.8 495.7C91.7 498.7 114.3 497.3 137.2 492.5C160 487.7 183 479.3 205.8 477C228.7 474.7 251.3 478.3 274.2 483.8C297 489.3 320 496.7 342.8 500.7C365.7 504.7 388.3 505.3 411.2 499C434 492.7 457 479.3 480 474.3C503 469.3 526 472.7 548.8 474.7C571.7 476.7 594.3 477.3 617.2 477.7C640 478 663 478 685.8 480.5C708.7 483 731.3 488 754.2 493C777 498 800 503 822.8 500.3C845.7 497.7 868.3 487.3 891.2 482C914 476.7 937 476.3 948.5 476.2L960 476L960 541L948.5 541C937 541 914 541 891.2 541C868.3 541 845.7 541 822.8 541C800 541 777 541 754.2 541C731.3 541 708.7 541 685.8 541C663 541 640 541 617.2 541C594.3 541 571.7 541 548.8 541C526 541 503 541 480 541C457 541 434 541 411.2 541C388.3 541 365.7 541 342.8 541C320 541 297 541 274.2 541C251.3 541 228.7 541 205.8 541C183 541 160 541 137.2 541C114.3 541 91.7 541 68.8 541C46 541 23 541 11.5 541L0 541Z" fill="#243b5e"></path><path d="M0 494L11.5 499.5C23 505 46 516 68.8 518.2C91.7 520.3 114.3 513.7 137.2 511.7C160 509.7 183 512.3 205.8 511.3C228.7 510.3 251.3 505.7 274.2 505.2C297 504.7 320 508.3 342.8 509.5C365.7 510.7 388.3 509.3 411.2 510.8C434 512.3 457 516.7 480 517.2C503 517.7 526 514.3 548.8 509.8C571.7 505.3 594.3 499.7 617.2 497.7C640 495.7 663 497.3 685.8 503.5C708.7 509.7 731.3 520.3 754.2 521.3C777 522.3 800 513.7 822.8 511.8C845.7 510 868.3 515 891.2 514.2C914 513.3 937 506.7 948.5 503.3L960 500L960 541L948.5 541C937 541 914 541 891.2 541C868.3 541 845.7 541 822.8 541C800 541 777 541 754.2 541C731.3 541 708.7 541 685.8 541C663 541 640 541 617.2 541C594.3 541 571.7 541 548.8 541C526 541 503 541 480 541C457 541 434 541 411.2 541C388.3 541 365.7 541 342.8 541C320 541 297 541 274.2 541C251.3 541 228.7 541 205.8 541C183 541 160 541 137.2 541C114.3 541 91.7 541 68.8 541C46 541 23 541 11.5 541L0 541Z" fill="#15122b"></path></svg>