<svg id="visual" viewBox="0 0 960 540" width="960" height="540" xmlns="http://www.w3.org/2000/svg" xmlns:xlink="http://www.w3.org/1999/xlink" version="1.1"><rect x="0" y="0" width="960" height="540" fill="#111415"></rect><path d="M0 141L17.8 133.5C35.7 126 71.3 111 106.8 111.8C142.3 112.7 177.7 129.3 213.2 136.5C248.7 143.7 284.3 141.3 320 144C355.7 146.7 391.3 154.3 426.8 141.5C462.3 128.7 497.7 95.3 533.2 81.7C568.7 68 604.3 74 640 85.8C675.7 97.7 711.3 115.3 746.8 118.2C782.3 121 817.7 109 853.2 106.3C888.7 103.7 924.3 110.3 942.2 113.7L960 117L960 0L942.2 0C924.3 0 888.7 0 853.2 0C817.7 0 782.3 0 746.8 0C711.3 0 675.7 0 640 0C604.3 0 568.7 0 533.2 0C497.7 0 462.3 0 426.8 0C391.3 0 355.7 0 320 0C284.3 0 248.7 0 213.2 0C177.7 0 142.3 0 106.8 0C71.3 0 35.7 0 17.8 0L0 0Z" fill="#286a91" stroke-linecap="round" stroke-linejoin="miter"></path></svg>