<svg id="visual" viewBox="0 0 960 540" width="960" height="540" xmlns="http://www.w3.org/2000/svg" xmlns:xlink="http://www.w3.org/1999/xlink" version="1.1"><rect x="0" y="0" width="960" height="540" fill="#111415"></rect><path d="M0 395L13.3 390C26.7 385 53.3 375 80 377.5C106.7 380 133.3 395 160 408C186.7 421 213.3 432 240 423.8C266.7 415.7 293.3 388.3 320 375.5C346.7 362.7 373.3 364.3 400 363.8C426.7 363.3 453.3 360.7 480 367.7C506.7 374.7 533.3 391.3 560 403.5C586.7 415.7 613.3 423.3 640 425.2C666.7 427 693.3 423 720 422.2C746.7 421.3 773.3 423.7 800 417.2C826.7 410.7 853.3 395.3 880 394.7C906.7 394 933.3 408 946.7 415L960 422L960 541L946.7 541C933.3 541 906.7 541 880 541C853.3 541 826.7 541 800 541C773.3 541 746.7 541 720 541C693.3 541 666.7 541 640 541C613.3 541 586.7 541 560 541C533.3 541 506.7 541 480 541C453.3 541 426.7 541 400 541C373.3 541 346.7 541 320 541C293.3 541 266.7 541 240 541C213.3 541 186.7 541 160 541C133.3 541 106.7 541 80 541C53.3 541 26.7 541 13.3 541L0 541Z" fill="#286a91"></path><path d="M0 438L13.3 431.5C26.7 425 53.3 412 80 411.3C106.7 410.7 133.3 422.3 160 425.7C186.7 429 213.3 424 240 422.5C266.7 421 293.3 423 320 428.2C346.7 433.3 373.3 441.7 400 448.8C426.7 456 453.3 462 480 456.5C506.7 451 533.3 434 560 431.3C586.7 428.7 613.3 440.3 640 447.2C666.7 454 693.3 456 720 457.5C746.7 459 773.3 460 800 449.8C826.7 439.7 853.3 418.3 880 416.7C906.7 415 933.3 433 946.7 442L960 451L960 541L946.7 541C933.3 541 906.7 541 880 541C853.3 541 826.7 541 800 541C773.3 541 746.7 541 720 541C693.3 541 666.7 541 640 541C613.3 541 586.7 541 560 541C533.3 541 506.7 541 480 541C453.3 541 426.7 541 400 541C373.3 541 346.7 541 320 541C293.3 541 266.7 541 240 541C213.3 541 186.7 541 160 541C133.3 541 106.7 541 80 541C53.3 541 26.7 541 13.3 541L0 541Z" fill="#274a6f"></path><path d="M0 455L13.3 457.7C26.7 460.3 53.3 465.7 80 468.7C106.7 471.7 133.3 472.3 160 470.7C186.7 469 213.3 465 240 460.2C266.7 455.3 293.3 449.7 320 453.2C346.7 456.7 373.3 469.3 400 475C426.7 480.7 453.3 479.3 480 481.7C506.7 484 533.3 490 560 491.7C586.7 493.3 613.3 490.7 640 486.5C666.7 482.3 693.3 476.7 720 477.2C746.7 477.7 773.3 484.3 800 479.5C826.7 474.7 853.3 458.3 880 457.8C906.7 457.3 933.3 472.7 946.7 480.3L960 488L960 541L946.7 541C933.3 541 906.7 541 880 541C853.3 541 826.7 541 800 541C773.3 541 746.7 541 720 541C693.3 541 666.7 541 640 541C613.3 541 586.7 541 560 541C533.3 541 506.7 541 480 541C453.3 541 426.7 541 400 541C373.3 541 346.7 541 320 541C293.3 541 266.7 541 240 541C213.3 541 186.7 541 160 541C133.3 541 106.7 541 80 541C53.3 541 26.7 541 13.3 541L0 541Z" fill="#202d4d"></path><path d="M0 479L13.3 478C26.7 477 53.3 475 80 476.3C106.7 477.7 133.3 482.3 160 484.8C186.7 487.3 213.3 487.7 240 493C266.7 498.3 293.3 508.7 320 508C346.7 507.3 373.3 495.7 400 489.5C426.7 483.3 453.3 482.7 480 487.8C506.7 493 533.3 504 560 505.8C586.7 507.7 613.3 500.3 640 494.3C666.7 488.3 693.3 483.7 720 482.8C746.7 482 773.3 485 800 491.7C826.7 498.3 853.3 508.7 880 509.3C906.7 510 933.3 501 946.7 496.5L960 492L960 541L946.7 541C933.3 541 906.7 541 880 541C853.3 541 826.7 541 800 541C773.3 541 746.7 541 720 541C693.3 541 666.7 541 640 541C613.3 541 586.7 541 560 541C533.3 541 506.7 541 480 541C453.3 541 426.7 541 400 541C373.3 541 346.7 541 320 541C293.3 541 266.7 541 240 541C213.3 541 186.7 541 160 541C133.3 541 106.7 541 80 541C53.3 541 26.7 541 13.3 541L0 541Z" fill="#15122b"></path></svg>