<svg id="visual" viewBox="0 0 280 400" width="280" height="400" xmlns="http://www.w3.org/2000/svg" xmlns:xlink="http://www.w3.org/1999/xlink" version="1.1"><rect x="0" y="0" width="280" height="400" fill="#111415"></rect><path d="M0 133L3.8 125.2C7.7 117.3 15.3 101.7 23.2 104.8C31 108 39 130 46.8 131.8C54.7 133.7 62.3 115.3 70 106C77.7 96.7 85.3 96.3 93.2 95.8C101 95.3 109 94.7 116.8 97.8C124.7 101 132.3 108 140 113C147.7 118 155.3 121 163.2 123.3C171 125.7 179 127.3 186.8 121.3C194.7 115.3 202.3 101.7 210 97.8C217.7 94 225.3 100 233.2 100.3C241 100.7 249 95.3 256.8 103.2C264.7 111 272.3 132 276.2 142.5L280 153L280 0L276.2 0C272.3 0 264.7 0 256.8 0C249 0 241 0 233.2 0C225.3 0 217.7 0 210 0C202.3 0 194.7 0 186.8 0C179 0 171 0 163.2 0C155.3 0 147.7 0 140 0C132.3 0 124.7 0 116.8 0C109 0 101 0 93.2 0C85.3 0 77.7 0 70 0C62.3 0 54.7 0 46.8 0C39 0 31 0 23.2 0C15.3 0 7.7 0 3.8 0L0 0Z" fill="#385057" stroke-linecap="round" stroke-linejoin="miter"></path></svg>