<svg id="visual" viewBox="0 0 960 540" width="960" height="540" xmlns="http://www.w3.org/2000/svg" xmlns:xlink="http://www.w3.org/1999/xlink" version="1.1"><rect x="0" y="0" width="960" height="540" fill="#111415"></rect><path d="M0 377L13.3 374C26.7 371 53.3 365 80 362.8C106.7 360.7 133.3 362.3 160 372.3C186.7 382.3 213.3 400.7 240 405.7C266.7 410.7 293.3 402.3 320 393.5C346.7 384.7 373.3 375.3 400 375C426.7 374.7 453.3 383.3 480 386.3C506.7 389.3 533.3 386.7 560 391C586.7 395.3 613.3 406.7 640 414C666.7 421.3 693.3 424.7 720 422.8C746.7 421 773.3 414 800 412.7C826.7 411.3 853.3 415.7 880 418.2C906.7 420.7 933.3 421.3 946.7 421.7L960 422L960 541L946.7 541C933.3 541 906.7 541 880 541C853.3 541 826.7 541 800 541C773.3 541 746.7 541 720 541C693.3 541 666.7 541 640 541C613.3 541 586.7 541 560 541C533.3 541 506.7 541 480 541C453.3 541 426.7 541 400 541C373.3 541 346.7 541 320 541C293.3 541 266.7 541 240 541C213.3 541 186.7 541 160 541C133.3 541 106.7 541 80 541C53.3 541 26.7 541 13.3 541L0 541Z" fill="#286a91"></path><path d="M0 475L13.3 474.3C26.7 473.7 53.3 472.3 80 459.8C106.7 447.3 133.3 423.7 160 412.3C186.7 401 213.3 402 240 410.3C266.7 418.7 293.3 434.3 320 433.3C346.7 432.3 373.3 414.7 400 414.7C426.7 414.7 453.3 432.3 480 435.8C506.7 439.3 533.3 428.7 560 425.3C586.7 422 613.3 426 640 422.5C666.7 419 693.3 408 720 413.7C746.7 419.3 773.3 441.7 800 450C826.7 458.3 853.3 452.7 880 451.5C906.7 450.3 933.3 453.7 946.7 455.3L960 457L960 541L946.7 541C933.3 541 906.7 541 880 541C853.3 541 826.7 541 800 541C773.3 541 746.7 541 720 541C693.3 541 666.7 541 640 541C613.3 541 586.7 541 560 541C533.3 541 506.7 541 480 541C453.3 541 426.7 541 400 541C373.3 541 346.7 541 320 541C293.3 541 266.7 541 240 541C213.3 541 186.7 541 160 541C133.3 541 106.7 541 80 541C53.3 541 26.7 541 13.3 541L0 541Z" fill="#274a6f"></path><path d="M0 433L13.3 437C26.7 441 53.3 449 80 449.3C106.7 449.7 133.3 442.3 160 447.7C186.7 453 213.3 471 240 481.2C266.7 491.3 293.3 493.7 320 489C346.7 484.3 373.3 472.7 400 464.2C426.7 455.7 453.3 450.3 480 451.3C506.7 452.3 533.3 459.7 560 458C586.7 456.3 613.3 445.7 640 441.5C666.7 437.3 693.3 439.7 720 448.5C746.7 457.3 773.3 472.7 800 473.8C826.7 475 853.3 462 880 457.2C906.7 452.3 933.3 455.7 946.7 457.3L960 459L960 541L946.7 541C933.3 541 906.7 541 880 541C853.3 541 826.7 541 800 541C773.3 541 746.7 541 720 541C693.3 541 666.7 541 640 541C613.3 541 586.7 541 560 541C533.3 541 506.7 541 480 541C453.3 541 426.7 541 400 541C373.3 541 346.7 541 320 541C293.3 541 266.7 541 240 541C213.3 541 186.7 541 160 541C133.3 541 106.7 541 80 541C53.3 541 26.7 541 13.3 541L0 541Z" fill="#202d4d"></path><path d="M0 483L13.3 488.2C26.7 493.3 53.3 503.7 80 506.2C106.7 508.7 133.3 503.3 160 504.3C186.7 505.3 213.3 512.7 240 509.5C266.7 506.3 293.3 492.7 320 489.8C346.7 487 373.3 495 400 496.5C426.7 498 453.3 493 480 494.2C506.7 495.3 533.3 502.7 560 504C586.7 505.3 613.3 500.7 640 495.7C666.7 490.7 693.3 485.3 720 483.8C746.7 482.3 773.3 484.7 800 485.2C826.7 485.7 853.3 484.3 880 486.8C906.7 489.3 933.3 495.7 946.7 498.8L960 502L960 541L946.7 541C933.3 541 906.7 541 880 541C853.3 541 826.7 541 800 541C773.3 541 746.7 541 720 541C693.3 541 666.7 541 640 541C613.3 541 586.7 541 560 541C533.3 541 506.7 541 480 541C453.3 541 426.7 541 400 541C373.3 541 346.7 541 320 541C293.3 541 266.7 541 240 541C213.3 541 186.7 541 160 541C133.3 541 106.7 541 80 541C53.3 541 26.7 541 13.3 541L0 541Z" fill="#15122b"></path></svg>