<svg id="visual" viewBox="0 0 960 540" width="960" height="540" xmlns="http://www.w3.org/2000/svg" xmlns:xlink="http://www.w3.org/1999/xlink" version="1.1"><rect x="0" y="0" width="960" height="540" fill="#111415"></rect><path d="M0 120L10.7 109C21.3 98 42.7 76 64 70.7C85.3 65.3 106.7 76.7 128 74.8C149.3 73 170.7 58 192 71.2C213.3 84.3 234.7 125.7 256 139.8C277.3 154 298.7 141 320 131.2C341.3 121.3 362.7 114.7 384 107.5C405.3 100.3 426.7 92.7 448 92.7C469.3 92.7 490.7 100.3 512 114.2C533.3 128 554.7 148 576 147.2C597.3 146.3 618.7 124.7 640 107.8C661.3 91 682.7 79 704 74.7C725.3 70.3 746.7 73.7 768 81.8C789.3 90 810.7 103 832 111.2C853.3 119.3 874.7 122.7 896 123.5C917.3 124.3 938.7 122.7 949.3 121.8L960 121L960 0L949.3 0C938.7 0 917.3 0 896 0C874.7 0 853.3 0 832 0C810.7 0 789.3 0 768 0C746.7 0 725.3 0 704 0C682.7 0 661.3 0 640 0C618.7 0 597.3 0 576 0C554.7 0 533.3 0 512 0C490.7 0 469.3 0 448 0C426.7 0 405.3 0 384 0C362.7 0 341.3 0 320 0C298.7 0 277.3 0 256 0C234.7 0 213.3 0 192 0C170.7 0 149.3 0 128 0C106.7 0 85.3 0 64 0C42.7 0 21.3 0 10.7 0L0 0Z" fill="#286a91" stroke-linecap="round" stroke-linejoin="miter"></path></svg>