<svg id="visual" viewBox="0 0 960 540" width="960" height="540" xmlns="http://www.w3.org/2000/svg" xmlns:xlink="http://www.w3.org/1999/xlink" version="1.1"><rect x="0" y="0" width="960" height="540" fill="#111415"></rect><path d="M0 55L17.8 72.3C35.7 89.7 71.3 124.3 106.8 127C142.3 129.7 177.7 100.3 213.2 99.7C248.7 99 284.3 127 320 132.8C355.7 138.7 391.3 122.3 426.8 106C462.3 89.7 497.7 73.3 533.2 78.3C568.7 83.3 604.3 109.7 640 110.7C675.7 111.7 711.3 87.3 746.8 81.3C782.3 75.3 817.7 87.7 853.2 100.2C888.7 112.7 924.3 125.3 942.2 131.7L960 138L960 0L942.2 0C924.3 0 888.7 0 853.2 0C817.7 0 782.3 0 746.8 0C711.3 0 675.7 0 640 0C604.3 0 568.7 0 533.2 0C497.7 0 462.3 0 426.8 0C391.3 0 355.7 0 320 0C284.3 0 248.7 0 213.2 0C177.7 0 142.3 0 106.8 0C71.3 0 35.7 0 17.8 0L0 0Z" fill="#286a91" stroke-linecap="round" stroke-linejoin="miter"></path></svg>