<svg id="visual" viewBox="0 0 960 540" width="960" height="540" xmlns="http://www.w3.org/2000/svg" xmlns:xlink="http://www.w3.org/1999/xlink" version="1.1"><rect x="0" y="0" width="960" height="540" fill="#111415"></rect><path d="M0 454L11.5 455.2C23 456.3 46 458.7 68.8 460.2C91.7 461.7 114.3 462.3 137.2 465C160 467.7 183 472.3 205.8 473.8C228.7 475.3 251.3 473.7 274.2 474C297 474.3 320 476.7 342.8 471.3C365.7 466 388.3 453 411.2 452.3C434 451.7 457 463.3 480 467.2C503 471 526 467 548.8 465.3C571.7 463.7 594.3 464.3 617.2 460.8C640 457.3 663 449.7 685.8 452.2C708.7 454.7 731.3 467.3 754.2 473.2C777 479 800 478 822.8 475C845.7 472 868.3 467 891.2 464.8C914 462.7 937 463.3 948.5 463.7L960 464L960 541L948.5 541C937 541 914 541 891.2 541C868.3 541 845.7 541 822.8 541C800 541 777 541 754.2 541C731.3 541 708.7 541 685.8 541C663 541 640 541 617.2 541C594.3 541 571.7 541 548.8 541C526 541 503 541 480 541C457 541 434 541 411.2 541C388.3 541 365.7 541 342.8 541C320 541 297 541 274.2 541C251.3 541 228.7 541 205.8 541C183 541 160 541 137.2 541C114.3 541 91.7 541 68.8 541C46 541 23 541 11.5 541L0 541Z" fill="#286a91"></path><path d="M0 481L11.5 479.8C23 478.7 46 476.3 68.8 479.8C91.7 483.3 114.3 492.7 137.2 494.3C160 496 183 490 205.8 484.5C228.7 479 251.3 474 274.2 472.2C297 470.3 320 471.7 342.8 471.2C365.7 470.7 388.3 468.3 411.2 467.2C434 466 457 466 480 466.7C503 467.3 526 468.7 548.8 474.3C571.7 480 594.3 490 617.2 489.5C640 489 663 478 685.8 474.8C708.7 471.7 731.3 476.3 754.2 479.2C777 482 800 483 822.8 480.5C845.7 478 868.3 472 891.2 469.8C914 467.7 937 469.3 948.5 470.2L960 471L960 541L948.5 541C937 541 914 541 891.2 541C868.3 541 845.7 541 822.8 541C800 541 777 541 754.2 541C731.3 541 708.7 541 685.8 541C663 541 640 541 617.2 541C594.3 541 571.7 541 548.8 541C526 541 503 541 480 541C457 541 434 541 411.2 541C388.3 541 365.7 541 342.8 541C320 541 297 541 274.2 541C251.3 541 228.7 541 205.8 541C183 541 160 541 137.2 541C114.3 541 91.7 541 68.8 541C46 541 23 541 11.5 541L0 541Z" fill="#243b5e"></path><path d="M0 493L11.5 495.7C23 498.3 46 503.7 68.8 507.2C91.7 510.7 114.3 512.3 137.2 513.7C160 515 183 516 205.8 514.3C228.7 512.7 251.3 508.3 274.2 507.8C297 507.3 320 510.7 342.8 515.5C365.7 520.3 388.3 526.7 411.2 525.2C434 523.7 457 514.3 480 513.3C503 512.3 526 519.7 548.8 520.8C571.7 522 594.3 517 617.2 512.8C640 508.7 663 505.3 685.8 503.5C708.7 501.7 731.3 501.3 754.2 505.2C777 509 800 517 822.8 519C845.7 521 868.3 517 891.2 514.3C914 511.7 937 510.3 948.5 509.7L960 509L960 541L948.5 541C937 541 914 541 891.2 541C868.3 541 845.7 541 822.8 541C800 541 777 541 754.2 541C731.3 541 708.7 541 685.8 541C663 541 640 541 617.2 541C594.3 541 571.7 541 548.8 541C526 541 503 541 480 541C457 541 434 541 411.2 541C388.3 541 365.7 541 342.8 541C320 541 297 541 274.2 541C251.3 541 228.7 541 205.8 541C183 541 160 541 137.2 541C114.3 541 91.7 541 68.8 541C46 541 23 541 11.5 541L0 541Z" fill="#15122b"></path></svg>