<svg id="visual" viewBox="0 0 960 200" width="960" height="200" xmlns="http://www.w3.org/2000/svg" xmlns:xlink="http://www.w3.org/1999/xlink" version="1.1"><rect x="0" y="0" width="960" height="200" fill="#111415"></rect><path d="M0 64L13.3 68.2C26.7 72.3 53.3 80.7 80 83C106.7 85.3 133.3 81.7 160 85.2C186.7 88.7 213.3 99.3 240 104C266.7 108.7 293.3 107.3 320 102.7C346.7 98 373.3 90 400 81.5C426.7 73 453.3 64 480 66.3C506.7 68.7 533.3 82.3 560 91.7C586.7 101 613.3 106 640 103.2C666.7 100.3 693.3 89.7 720 92C746.7 94.3 773.3 109.7 800 111.5C826.7 113.3 853.3 101.7 880 97.8C906.7 94 933.3 98 946.7 100L960 102L960 201L946.7 201C933.3 201 906.7 201 880 201C853.3 201 826.7 201 800 201C773.3 201 746.7 201 720 201C693.3 201 666.7 201 640 201C613.3 201 586.7 201 560 201C533.3 201 506.7 201 480 201C453.3 201 426.7 201 400 201C373.3 201 346.7 201 320 201C293.3 201 266.7 201 240 201C213.3 201 186.7 201 160 201C133.3 201 106.7 201 80 201C53.3 201 26.7 201 13.3 201L0 201Z" fill="#286a91"></path><path d="M0 99L13.3 104.2C26.7 109.3 53.3 119.7 80 124C106.7 128.3 133.3 126.7 160 127.2C186.7 127.7 213.3 130.3 240 130.5C266.7 130.7 293.3 128.3 320 128.2C346.7 128 373.3 130 400 128.8C426.7 127.7 453.3 123.3 480 115.7C506.7 108 533.3 97 560 97.7C586.7 98.3 613.3 110.7 640 112.2C666.7 113.7 693.3 104.3 720 100C746.7 95.7 773.3 96.3 800 96.8C826.7 97.3 853.3 97.7 880 98.5C906.7 99.3 933.3 100.7 946.7 101.3L960 102L960 201L946.7 201C933.3 201 906.7 201 880 201C853.3 201 826.7 201 800 201C773.3 201 746.7 201 720 201C693.3 201 666.7 201 640 201C613.3 201 586.7 201 560 201C533.3 201 506.7 201 480 201C453.3 201 426.7 201 400 201C373.3 201 346.7 201 320 201C293.3 201 266.7 201 240 201C213.3 201 186.7 201 160 201C133.3 201 106.7 201 80 201C53.3 201 26.7 201 13.3 201L0 201Z" fill="#28577d"></path><path d="M0 150L13.3 147.8C26.7 145.7 53.3 141.3 80 133.3C106.7 125.3 133.3 113.7 160 113.5C186.7 113.3 213.3 124.7 240 127.3C266.7 130 293.3 124 320 126.3C346.7 128.7 373.3 139.3 400 136.5C426.7 133.7 453.3 117.3 480 117.2C506.7 117 533.3 133 560 141C586.7 149 613.3 149 640 145.2C666.7 141.3 693.3 133.7 720 125.5C746.7 117.3 773.3 108.7 800 110.2C826.7 111.7 853.3 123.3 880 126.2C906.7 129 933.3 123 946.7 120L960 117L960 201L946.7 201C933.3 201 906.7 201 880 201C853.3 201 826.7 201 800 201C773.3 201 746.7 201 720 201C693.3 201 666.7 201 640 201C613.3 201 586.7 201 560 201C533.3 201 506.7 201 480 201C453.3 201 426.7 201 400 201C373.3 201 346.7 201 320 201C293.3 201 266.7 201 240 201C213.3 201 186.7 201 160 201C133.3 201 106.7 201 80 201C53.3 201 26.7 201 13.3 201L0 201Z" fill="#264468"></path><path d="M0 158L13.3 157.7C26.7 157.3 53.3 156.7 80 156.7C106.7 156.7 133.3 157.3 160 152.2C186.7 147 213.3 136 240 132.3C266.7 128.7 293.3 132.3 320 138.7C346.7 145 373.3 154 400 152.8C426.7 151.7 453.3 140.3 480 138.8C506.7 137.3 533.3 145.7 560 148.3C586.7 151 613.3 148 640 146.7C666.7 145.3 693.3 145.7 720 144.8C746.7 144 773.3 142 800 141.3C826.7 140.7 853.3 141.3 880 145C906.7 148.7 933.3 155.3 946.7 158.7L960 162L960 201L946.7 201C933.3 201 906.7 201 880 201C853.3 201 826.7 201 800 201C773.3 201 746.7 201 720 201C693.3 201 666.7 201 640 201C613.3 201 586.7 201 560 201C533.3 201 506.7 201 480 201C453.3 201 426.7 201 400 201C373.3 201 346.7 201 320 201C293.3 201 266.7 201 240 201C213.3 201 186.7 201 160 201C133.3 201 106.7 201 80 201C53.3 201 26.7 201 13.3 201L0 201Z" fill="#223254"></path><path d="M0 149L13.3 149.7C26.7 150.3 53.3 151.7 80 156.5C106.7 161.3 133.3 169.7 160 169.7C186.7 169.7 213.3 161.3 240 157.2C266.7 153 293.3 153 320 155.7C346.7 158.3 373.3 163.7 400 162.2C426.7 160.7 453.3 152.3 480 152C506.7 151.7 533.3 159.3 560 164.3C586.7 169.3 613.3 171.7 640 168C666.7 164.3 693.3 154.7 720 149C746.7 143.3 773.3 141.7 800 141.3C826.7 141 853.3 142 880 141.8C906.7 141.7 933.3 140.3 946.7 139.7L960 139L960 201L946.7 201C933.3 201 906.7 201 880 201C853.3 201 826.7 201 800 201C773.3 201 746.7 201 720 201C693.3 201 666.7 201 640 201C613.3 201 586.7 201 560 201C533.3 201 506.7 201 480 201C453.3 201 426.7 201 400 201C373.3 201 346.7 201 320 201C293.3 201 266.7 201 240 201C213.3 201 186.7 201 160 201C133.3 201 106.7 201 80 201C53.3 201 26.7 201 13.3 201L0 201Z" fill="#1c223f"></path><path d="M0 187L13.3 183.7C26.7 180.3 53.3 173.7 80 174.3C106.7 175 133.3 183 160 186.5C186.7 190 213.3 189 240 187.8C266.7 186.7 293.3 185.3 320 181.8C346.7 178.3 373.3 172.7 400 169.2C426.7 165.7 453.3 164.3 480 167.7C506.7 171 533.3 179 560 182.5C586.7 186 613.3 185 640 185.2C666.7 185.3 693.3 186.7 720 186.5C746.7 186.3 773.3 184.7 800 183.5C826.7 182.3 853.3 181.7 880 179.2C906.7 176.7 933.3 172.3 946.7 170.2L960 168L960 201L946.7 201C933.3 201 906.7 201 880 201C853.3 201 826.7 201 800 201C773.3 201 746.7 201 720 201C693.3 201 666.7 201 640 201C613.3 201 586.7 201 560 201C533.3 201 506.7 201 480 201C453.3 201 426.7 201 400 201C373.3 201 346.7 201 320 201C293.3 201 266.7 201 240 201C213.3 201 186.7 201 160 201C133.3 201 106.7 201 80 201C53.3 201 26.7 201 13.3 201L0 201Z" fill="#15122b"></path></svg>