<svg id="visual" viewBox="0 0 960 540" width="960" height="540" xmlns="http://www.w3.org/2000/svg" xmlns:xlink="http://www.w3.org/1999/xlink" version="1.1"><rect x="0" y="0" width="960" height="540" fill="#111415"></rect><path d="M0 450L11.5 453.3C23 456.7 46 463.3 68.8 466C91.7 468.7 114.3 467.3 137.2 462.3C160 457.3 183 448.7 205.8 449C228.7 449.3 251.3 458.7 274.2 461.2C297 463.7 320 459.3 342.8 456C365.7 452.7 388.3 450.3 411.2 452.7C434 455 457 462 480 463.3C503 464.7 526 460.3 548.8 457.8C571.7 455.3 594.3 454.7 617.2 455.5C640 456.3 663 458.7 685.8 460.7C708.7 462.7 731.3 464.3 754.2 462.2C777 460 800 454 822.8 456.3C845.7 458.7 868.3 469.3 891.2 474.5C914 479.7 937 479.3 948.5 479.2L960 479L960 541L948.5 541C937 541 914 541 891.2 541C868.3 541 845.7 541 822.8 541C800 541 777 541 754.2 541C731.3 541 708.7 541 685.8 541C663 541 640 541 617.2 541C594.3 541 571.7 541 548.8 541C526 541 503 541 480 541C457 541 434 541 411.2 541C388.3 541 365.7 541 342.8 541C320 541 297 541 274.2 541C251.3 541 228.7 541 205.8 541C183 541 160 541 137.2 541C114.3 541 91.7 541 68.8 541C46 541 23 541 11.5 541L0 541Z" fill="#286a91"></path><path d="M0 477L11.5 480.3C23 483.7 46 490.3 68.8 493.7C91.7 497 114.3 497 137.2 497.3C160 497.7 183 498.3 205.8 497.5C228.7 496.7 251.3 494.3 274.2 492.3C297 490.3 320 488.7 342.8 484C365.7 479.3 388.3 471.7 411.2 474.5C434 477.3 457 490.7 480 493.3C503 496 526 488 548.8 483.8C571.7 479.7 594.3 479.3 617.2 477C640 474.7 663 470.3 685.8 474.3C708.7 478.3 731.3 490.7 754.2 497.3C777 504 800 505 822.8 498.8C845.7 492.7 868.3 479.3 891.2 473C914 466.7 937 467.3 948.5 467.7L960 468L960 541L948.5 541C937 541 914 541 891.2 541C868.3 541 845.7 541 822.8 541C800 541 777 541 754.2 541C731.3 541 708.7 541 685.8 541C663 541 640 541 617.2 541C594.3 541 571.7 541 548.8 541C526 541 503 541 480 541C457 541 434 541 411.2 541C388.3 541 365.7 541 342.8 541C320 541 297 541 274.2 541C251.3 541 228.7 541 205.8 541C183 541 160 541 137.2 541C114.3 541 91.7 541 68.8 541C46 541 23 541 11.5 541L0 541Z" fill="#243b5e"></path><path d="M0 502L11.5 505.2C23 508.3 46 514.7 68.8 515.5C91.7 516.3 114.3 511.7 137.2 508.8C160 506 183 505 205.8 503.7C228.7 502.3 251.3 500.7 274.2 499.8C297 499 320 499 342.8 504.3C365.7 509.7 388.3 520.3 411.2 520.5C434 520.7 457 510.3 480 503.8C503 497.3 526 494.7 548.8 495.3C571.7 496 594.3 500 617.2 499.8C640 499.7 663 495.3 685.8 500.2C708.7 505 731.3 519 754.2 519.2C777 519.3 800 505.7 822.8 504.3C845.7 503 868.3 514 891.2 514.5C914 515 937 505 948.5 500L960 495L960 541L948.5 541C937 541 914 541 891.2 541C868.3 541 845.7 541 822.8 541C800 541 777 541 754.2 541C731.3 541 708.7 541 685.8 541C663 541 640 541 617.2 541C594.3 541 571.7 541 548.8 541C526 541 503 541 480 541C457 541 434 541 411.2 541C388.3 541 365.7 541 342.8 541C320 541 297 541 274.2 541C251.3 541 228.7 541 205.8 541C183 541 160 541 137.2 541C114.3 541 91.7 541 68.8 541C46 541 23 541 11.5 541L0 541Z" fill="#15122b"></path></svg>