<svg id="visual" viewBox="0 0 960 200" width="960" height="200" xmlns="http://www.w3.org/2000/svg" xmlns:xlink="http://www.w3.org/1999/xlink" version="1.1"><rect x="0" y="0" width="960" height="200" fill="#111415"></rect><path d="M0 102L13.3 99.8C26.7 97.7 53.3 93.3 80 85.7C106.7 78 133.3 67 160 65C186.7 63 213.3 70 240 80.8C266.7 91.7 293.3 106.3 320 113.3C346.7 120.3 373.3 119.7 400 112.7C426.7 105.7 453.3 92.3 480 91.3C506.7 90.3 533.3 101.7 560 107.7C586.7 113.7 613.3 114.3 640 107.3C666.7 100.3 693.3 85.7 720 83.3C746.7 81 773.3 91 800 93.3C826.7 95.7 853.3 90.3 880 84.5C906.7 78.7 933.3 72.3 946.7 69.2L960 66L960 201L946.7 201C933.3 201 906.7 201 880 201C853.3 201 826.7 201 800 201C773.3 201 746.7 201 720 201C693.3 201 666.7 201 640 201C613.3 201 586.7 201 560 201C533.3 201 506.7 201 480 201C453.3 201 426.7 201 400 201C373.3 201 346.7 201 320 201C293.3 201 266.7 201 240 201C213.3 201 186.7 201 160 201C133.3 201 106.7 201 80 201C53.3 201 26.7 201 13.3 201L0 201Z" fill="#286a91"></path><path d="M0 93L13.3 93.8C26.7 94.7 53.3 96.3 80 101C106.7 105.7 133.3 113.3 160 110.2C186.7 107 213.3 93 240 95.3C266.7 97.7 293.3 116.3 320 116.8C346.7 117.3 373.3 99.7 400 94.8C426.7 90 453.3 98 480 97.2C506.7 96.3 533.3 86.7 560 87.7C586.7 88.7 613.3 100.3 640 104.7C666.7 109 693.3 106 720 101C746.7 96 773.3 89 800 91.3C826.7 93.7 853.3 105.3 880 106.7C906.7 108 933.3 99 946.7 94.5L960 90L960 201L946.7 201C933.3 201 906.7 201 880 201C853.3 201 826.7 201 800 201C773.3 201 746.7 201 720 201C693.3 201 666.7 201 640 201C613.3 201 586.7 201 560 201C533.3 201 506.7 201 480 201C453.3 201 426.7 201 400 201C373.3 201 346.7 201 320 201C293.3 201 266.7 201 240 201C213.3 201 186.7 201 160 201C133.3 201 106.7 201 80 201C53.3 201 26.7 201 13.3 201L0 201Z" fill="#28577d"></path><path d="M0 109L13.3 108.5C26.7 108 53.3 107 80 111.5C106.7 116 133.3 126 160 126.7C186.7 127.3 213.3 118.7 240 118.5C266.7 118.3 293.3 126.7 320 133C346.7 139.3 373.3 143.7 400 142C426.7 140.3 453.3 132.7 480 128C506.7 123.3 533.3 121.7 560 119.2C586.7 116.7 613.3 113.3 640 113.7C666.7 114 693.3 118 720 118.8C746.7 119.7 773.3 117.3 800 118.8C826.7 120.3 853.3 125.7 880 126.5C906.7 127.3 933.3 123.7 946.7 121.8L960 120L960 201L946.7 201C933.3 201 906.7 201 880 201C853.3 201 826.7 201 800 201C773.3 201 746.7 201 720 201C693.3 201 666.7 201 640 201C613.3 201 586.7 201 560 201C533.3 201 506.7 201 480 201C453.3 201 426.7 201 400 201C373.3 201 346.7 201 320 201C293.3 201 266.7 201 240 201C213.3 201 186.7 201 160 201C133.3 201 106.7 201 80 201C53.3 201 26.7 201 13.3 201L0 201Z" fill="#264468"></path><path d="M0 160L13.3 153.8C26.7 147.7 53.3 135.3 80 135.5C106.7 135.7 133.3 148.3 160 147.7C186.7 147 213.3 133 240 126C266.7 119 293.3 119 320 125.7C346.7 132.3 373.3 145.7 400 151.7C426.7 157.7 453.3 156.3 480 155.3C506.7 154.3 533.3 153.7 560 154.8C586.7 156 613.3 159 640 158.7C666.7 158.3 693.3 154.7 720 150.7C746.7 146.7 773.3 142.3 800 140.7C826.7 139 853.3 140 880 138.8C906.7 137.7 933.3 134.3 946.7 132.7L960 131L960 201L946.7 201C933.3 201 906.7 201 880 201C853.3 201 826.7 201 800 201C773.3 201 746.7 201 720 201C693.3 201 666.7 201 640 201C613.3 201 586.7 201 560 201C533.3 201 506.7 201 480 201C453.3 201 426.7 201 400 201C373.3 201 346.7 201 320 201C293.3 201 266.7 201 240 201C213.3 201 186.7 201 160 201C133.3 201 106.7 201 80 201C53.3 201 26.7 201 13.3 201L0 201Z" fill="#223254"></path><path d="M0 154L13.3 158C26.7 162 53.3 170 80 173.5C106.7 177 133.3 176 160 172.3C186.7 168.7 213.3 162.3 240 161.7C266.7 161 293.3 166 320 164.2C346.7 162.3 373.3 153.7 400 154.5C426.7 155.3 453.3 165.7 480 169.2C506.7 172.7 533.3 169.3 560 165.5C586.7 161.7 613.3 157.3 640 152.8C666.7 148.3 693.3 143.7 720 142C746.7 140.3 773.3 141.7 800 144.7C826.7 147.7 853.3 152.3 880 157.8C906.7 163.3 933.3 169.7 946.7 172.8L960 176L960 201L946.7 201C933.3 201 906.7 201 880 201C853.3 201 826.7 201 800 201C773.3 201 746.7 201 720 201C693.3 201 666.7 201 640 201C613.3 201 586.7 201 560 201C533.3 201 506.7 201 480 201C453.3 201 426.7 201 400 201C373.3 201 346.7 201 320 201C293.3 201 266.7 201 240 201C213.3 201 186.7 201 160 201C133.3 201 106.7 201 80 201C53.3 201 26.7 201 13.3 201L0 201Z" fill="#1c223f"></path><path d="M0 184L13.3 181.5C26.7 179 53.3 174 80 170.8C106.7 167.7 133.3 166.3 160 165.2C186.7 164 213.3 163 240 166.3C266.7 169.7 293.3 177.3 320 182.2C346.7 187 373.3 189 400 187.2C426.7 185.3 453.3 179.7 480 177C506.7 174.3 533.3 174.7 560 176.2C586.7 177.7 613.3 180.3 640 181.8C666.7 183.3 693.3 183.7 720 180.5C746.7 177.3 773.3 170.7 800 170.2C826.7 169.7 853.3 175.3 880 175.2C906.7 175 933.3 169 946.7 166L960 163L960 201L946.7 201C933.3 201 906.7 201 880 201C853.3 201 826.7 201 800 201C773.3 201 746.7 201 720 201C693.3 201 666.7 201 640 201C613.3 201 586.7 201 560 201C533.3 201 506.7 201 480 201C453.3 201 426.7 201 400 201C373.3 201 346.7 201 320 201C293.3 201 266.7 201 240 201C213.3 201 186.7 201 160 201C133.3 201 106.7 201 80 201C53.3 201 26.7 201 13.3 201L0 201Z" fill="#15122b"></path></svg>