<svg id="visual" viewBox="0 0 960 540" width="960" height="540" xmlns="http://www.w3.org/2000/svg" xmlns:xlink="http://www.w3.org/1999/xlink" version="1.1"><rect x="0" y="0" width="960" height="540" fill="#111415"></rect><path d="M0 468L11.5 466C23 464 46 460 68.8 459C91.7 458 114.3 460 137.2 459.5C160 459 183 456 205.8 456.8C228.7 457.7 251.3 462.3 274.2 465.5C297 468.7 320 470.3 342.8 472.5C365.7 474.7 388.3 477.3 411.2 478.3C434 479.3 457 478.7 480 477.3C503 476 526 474 548.8 468.7C571.7 463.3 594.3 454.7 617.2 454C640 453.3 663 460.7 685.8 466.7C708.7 472.7 731.3 477.3 754.2 475.2C777 473 800 464 822.8 459.3C845.7 454.7 868.3 454.3 891.2 457.5C914 460.7 937 467.3 948.5 470.7L960 474L960 541L948.5 541C937 541 914 541 891.2 541C868.3 541 845.7 541 822.8 541C800 541 777 541 754.2 541C731.3 541 708.7 541 685.8 541C663 541 640 541 617.2 541C594.3 541 571.7 541 548.8 541C526 541 503 541 480 541C457 541 434 541 411.2 541C388.3 541 365.7 541 342.8 541C320 541 297 541 274.2 541C251.3 541 228.7 541 205.8 541C183 541 160 541 137.2 541C114.3 541 91.7 541 68.8 541C46 541 23 541 11.5 541L0 541Z" fill="#286a91"></path><path d="M0 504L11.5 503.2C23 502.3 46 500.7 68.8 499.5C91.7 498.3 114.3 497.7 137.2 493.5C160 489.3 183 481.7 205.8 478.7C228.7 475.7 251.3 477.3 274.2 481.5C297 485.7 320 492.3 342.8 489.8C365.7 487.3 388.3 475.7 411.2 475.3C434 475 457 486 480 493C503 500 526 503 548.8 503.2C571.7 503.3 594.3 500.7 617.2 499.8C640 499 663 500 685.8 498.5C708.7 497 731.3 493 754.2 487.5C777 482 800 475 822.8 475.8C845.7 476.7 868.3 485.3 891.2 485.5C914 485.7 937 477.3 948.5 473.2L960 469L960 541L948.5 541C937 541 914 541 891.2 541C868.3 541 845.7 541 822.8 541C800 541 777 541 754.2 541C731.3 541 708.7 541 685.8 541C663 541 640 541 617.2 541C594.3 541 571.7 541 548.8 541C526 541 503 541 480 541C457 541 434 541 411.2 541C388.3 541 365.7 541 342.8 541C320 541 297 541 274.2 541C251.3 541 228.7 541 205.8 541C183 541 160 541 137.2 541C114.3 541 91.7 541 68.8 541C46 541 23 541 11.5 541L0 541Z" fill="#243b5e"></path><path d="M0 505L11.5 506.5C23 508 46 511 68.8 510.5C91.7 510 114.3 506 137.2 507.5C160 509 183 516 205.8 517.3C228.7 518.7 251.3 514.3 274.2 509.5C297 504.7 320 499.3 342.8 498C365.7 496.7 388.3 499.3 411.2 503.8C434 508.3 457 514.7 480 518.3C503 522 526 523 548.8 518.5C571.7 514 594.3 504 617.2 504.5C640 505 663 516 685.8 521.7C708.7 527.3 731.3 527.7 754.2 528.5C777 529.3 800 530.7 822.8 529.7C845.7 528.7 868.3 525.3 891.2 524C914 522.7 937 523.3 948.5 523.7L960 524L960 541L948.5 541C937 541 914 541 891.2 541C868.3 541 845.7 541 822.8 541C800 541 777 541 754.2 541C731.3 541 708.7 541 685.8 541C663 541 640 541 617.2 541C594.3 541 571.7 541 548.8 541C526 541 503 541 480 541C457 541 434 541 411.2 541C388.3 541 365.7 541 342.8 541C320 541 297 541 274.2 541C251.3 541 228.7 541 205.8 541C183 541 160 541 137.2 541C114.3 541 91.7 541 68.8 541C46 541 23 541 11.5 541L0 541Z" fill="#15122b"></path></svg>