<svg id="visual" viewBox="0 0 960 540" width="960" height="540" xmlns="http://www.w3.org/2000/svg" xmlns:xlink="http://www.w3.org/1999/xlink" version="1.1"><rect x="0" y="0" width="960" height="540" fill="#111415"></rect><path d="M0 423L13.3 416.3C26.7 409.7 53.3 396.3 80 386.3C106.7 376.3 133.3 369.7 160 380C186.7 390.3 213.3 417.7 240 416.7C266.7 415.7 293.3 386.3 320 376C346.7 365.7 373.3 374.3 400 376.3C426.7 378.3 453.3 373.7 480 376.7C506.7 379.7 533.3 390.3 560 390.5C586.7 390.7 613.3 380.3 640 383.5C666.7 386.7 693.3 403.3 720 411.8C746.7 420.3 773.3 420.7 800 414.5C826.7 408.3 853.3 395.7 880 394.8C906.7 394 933.3 405 946.7 410.5L960 416L960 541L946.7 541C933.3 541 906.7 541 880 541C853.3 541 826.7 541 800 541C773.3 541 746.7 541 720 541C693.3 541 666.7 541 640 541C613.3 541 586.7 541 560 541C533.3 541 506.7 541 480 541C453.3 541 426.7 541 400 541C373.3 541 346.7 541 320 541C293.3 541 266.7 541 240 541C213.3 541 186.7 541 160 541C133.3 541 106.7 541 80 541C53.3 541 26.7 541 13.3 541L0 541Z" fill="#286a91"></path><path d="M0 400L13.3 412.5C26.7 425 53.3 450 80 449.5C106.7 449 133.3 423 160 419.8C186.7 416.7 213.3 436.3 240 437.2C266.7 438 293.3 420 320 409.8C346.7 399.7 373.3 397.3 400 402.3C426.7 407.3 453.3 419.7 480 429.2C506.7 438.7 533.3 445.3 560 440.8C586.7 436.3 613.3 420.7 640 419.7C666.7 418.7 693.3 432.3 720 436.7C746.7 441 773.3 436 800 431.3C826.7 426.7 853.3 422.3 880 419.3C906.7 416.3 933.3 414.7 946.7 413.8L960 413L960 541L946.7 541C933.3 541 906.7 541 880 541C853.3 541 826.7 541 800 541C773.3 541 746.7 541 720 541C693.3 541 666.7 541 640 541C613.3 541 586.7 541 560 541C533.3 541 506.7 541 480 541C453.3 541 426.7 541 400 541C373.3 541 346.7 541 320 541C293.3 541 266.7 541 240 541C213.3 541 186.7 541 160 541C133.3 541 106.7 541 80 541C53.3 541 26.7 541 13.3 541L0 541Z" fill="#274a6f"></path><path d="M0 474L13.3 469.5C26.7 465 53.3 456 80 453.5C106.7 451 133.3 455 160 455C186.7 455 213.3 451 240 454.5C266.7 458 293.3 469 320 467.2C346.7 465.3 373.3 450.7 400 449C426.7 447.3 453.3 458.7 480 463.5C506.7 468.3 533.3 466.7 560 467.3C586.7 468 613.3 471 640 476.5C666.7 482 693.3 490 720 493.5C746.7 497 773.3 496 800 487.8C826.7 479.7 853.3 464.3 880 455.2C906.7 446 933.3 443 946.7 441.5L960 440L960 541L946.7 541C933.3 541 906.7 541 880 541C853.3 541 826.7 541 800 541C773.3 541 746.7 541 720 541C693.3 541 666.7 541 640 541C613.3 541 586.7 541 560 541C533.3 541 506.7 541 480 541C453.3 541 426.7 541 400 541C373.3 541 346.7 541 320 541C293.3 541 266.7 541 240 541C213.3 541 186.7 541 160 541C133.3 541 106.7 541 80 541C53.3 541 26.7 541 13.3 541L0 541Z" fill="#202d4d"></path><path d="M0 499L13.3 502.2C26.7 505.3 53.3 511.7 80 511.5C106.7 511.3 133.3 504.7 160 498.2C186.7 491.7 213.3 485.3 240 483.2C266.7 481 293.3 483 320 483.5C346.7 484 373.3 483 400 481.2C426.7 479.3 453.3 476.7 480 478.3C506.7 480 533.3 486 560 492.7C586.7 499.3 613.3 506.7 640 511C666.7 515.3 693.3 516.7 720 517.5C746.7 518.3 773.3 518.7 800 517.8C826.7 517 853.3 515 880 510.8C906.7 506.7 933.3 500.3 946.7 497.2L960 494L960 541L946.7 541C933.3 541 906.7 541 880 541C853.3 541 826.7 541 800 541C773.3 541 746.7 541 720 541C693.3 541 666.7 541 640 541C613.3 541 586.7 541 560 541C533.3 541 506.7 541 480 541C453.3 541 426.7 541 400 541C373.3 541 346.7 541 320 541C293.3 541 266.7 541 240 541C213.3 541 186.7 541 160 541C133.3 541 106.7 541 80 541C53.3 541 26.7 541 13.3 541L0 541Z" fill="#15122b"></path></svg>