<svg id="visual" viewBox="0 0 960 540" width="960" height="540" xmlns="http://www.w3.org/2000/svg" xmlns:xlink="http://www.w3.org/1999/xlink" version="1.1"><rect x="0" y="0" width="960" height="540" fill="#111415"></rect><path d="M0 80L10.7 84.5C21.3 89 42.7 98 64 111.8C85.3 125.7 106.7 144.3 128 154.8C149.3 165.3 170.7 167.7 192 166.2C213.3 164.7 234.7 159.3 256 150.5C277.3 141.7 298.7 129.3 320 111.7C341.3 94 362.7 71 384 63.3C405.3 55.7 426.7 63.3 448 64.3C469.3 65.3 490.7 59.7 512 73.2C533.3 86.7 554.7 119.3 576 125.3C597.3 131.3 618.7 110.7 640 112.2C661.3 113.7 682.7 137.3 704 140.3C725.3 143.3 746.7 125.7 768 123.2C789.3 120.7 810.7 133.3 832 137.2C853.3 141 874.7 136 896 124.2C917.3 112.3 938.7 93.7 949.3 84.3L960 75L960 0L949.3 0C938.7 0 917.3 0 896 0C874.7 0 853.3 0 832 0C810.7 0 789.3 0 768 0C746.7 0 725.3 0 704 0C682.7 0 661.3 0 640 0C618.7 0 597.3 0 576 0C554.7 0 533.3 0 512 0C490.7 0 469.3 0 448 0C426.7 0 405.3 0 384 0C362.7 0 341.3 0 320 0C298.7 0 277.3 0 256 0C234.7 0 213.3 0 192 0C170.7 0 149.3 0 128 0C106.7 0 85.3 0 64 0C42.7 0 21.3 0 10.7 0L0 0Z" fill="#286a91" stroke-linecap="round" stroke-linejoin="miter"></path></svg>