<svg id="visual" viewBox="0 0 280 400" width="280" height="400" xmlns="http://www.w3.org/2000/svg" xmlns:xlink="http://www.w3.org/1999/xlink" version="1.1"><rect x="0" y="0" width="280" height="400" fill="#111415"></rect><path d="M0 74L9.3 82.3C18.7 90.7 37.3 107.3 56 101C74.7 94.7 93.3 65.3 112 56.5C130.7 47.7 149.3 59.3 168 85.3C186.7 111.3 205.3 151.7 224 173C242.7 194.3 261.3 196.7 270.7 197.8L280 199L280 0L270.7 0C261.3 0 242.7 0 224 0C205.3 0 186.7 0 168 0C149.3 0 130.7 0 112 0C93.3 0 74.7 0 56 0C37.3 0 18.7 0 9.3 0L0 0Z" fill="#385057" stroke-linecap="round" stroke-linejoin="miter"></path></svg>