<svg id="visual" viewBox="0 0 960 540" width="960" height="540" xmlns="http://www.w3.org/2000/svg" xmlns:xlink="http://www.w3.org/1999/xlink" version="1.1"><rect x="0" y="0" width="960" height="540" fill="#111415"></rect><path d="M0 54L10.7 58.8C21.3 63.7 42.7 73.3 64 73.2C85.3 73 106.7 63 128 63.5C149.3 64 170.7 75 192 94C213.3 113 234.7 140 256 142.5C277.3 145 298.7 123 320 104C341.3 85 362.7 69 384 60.5C405.3 52 426.7 51 448 56.3C469.3 61.7 490.7 73.3 512 83C533.3 92.7 554.7 100.3 576 96C597.3 91.7 618.7 75.3 640 73.2C661.3 71 682.7 83 704 97C725.3 111 746.7 127 768 133.3C789.3 139.7 810.7 136.3 832 126.2C853.3 116 874.7 99 896 92.8C917.3 86.7 938.7 91.3 949.3 93.7L960 96L960 0L949.3 0C938.7 0 917.3 0 896 0C874.7 0 853.3 0 832 0C810.7 0 789.3 0 768 0C746.7 0 725.3 0 704 0C682.7 0 661.3 0 640 0C618.7 0 597.3 0 576 0C554.7 0 533.3 0 512 0C490.7 0 469.3 0 448 0C426.7 0 405.3 0 384 0C362.7 0 341.3 0 320 0C298.7 0 277.3 0 256 0C234.7 0 213.3 0 192 0C170.7 0 149.3 0 128 0C106.7 0 85.3 0 64 0C42.7 0 21.3 0 10.7 0L0 0Z" fill="#286a91" stroke-linecap="round" stroke-linejoin="miter"></path></svg>