<svg id="visual" viewBox="0 0 960 540" width="960" height="540" xmlns="http://www.w3.org/2000/svg" xmlns:xlink="http://www.w3.org/1999/xlink" version="1.1"><rect x="0" y="0" width="960" height="540" fill="#111415"></rect><path d="M0 468L11.5 468C23 468 46 468 68.8 466.5C91.7 465 114.3 462 137.2 457.8C160 453.7 183 448.3 205.8 451C228.7 453.7 251.3 464.3 274.2 463.8C297 463.3 320 451.7 342.8 446.5C365.7 441.3 388.3 442.7 411.2 445.7C434 448.7 457 453.3 480 459.3C503 465.3 526 472.7 548.8 469.5C571.7 466.3 594.3 452.7 617.2 447C640 441.3 663 443.7 685.8 449C708.7 454.3 731.3 462.7 754.2 464C777 465.3 800 459.7 822.8 459C845.7 458.3 868.3 462.7 891.2 466.7C914 470.7 937 474.3 948.5 476.2L960 478L960 541L948.5 541C937 541 914 541 891.2 541C868.3 541 845.7 541 822.8 541C800 541 777 541 754.2 541C731.3 541 708.7 541 685.8 541C663 541 640 541 617.2 541C594.3 541 571.7 541 548.8 541C526 541 503 541 480 541C457 541 434 541 411.2 541C388.3 541 365.7 541 342.8 541C320 541 297 541 274.2 541C251.3 541 228.7 541 205.8 541C183 541 160 541 137.2 541C114.3 541 91.7 541 68.8 541C46 541 23 541 11.5 541L0 541Z" fill="#286a91"></path><path d="M0 464L11.5 468.5C23 473 46 482 68.8 482.2C91.7 482.3 114.3 473.7 137.2 475.7C160 477.7 183 490.3 205.8 491.2C228.7 492 251.3 481 274.2 475.7C297 470.3 320 470.7 342.8 474.8C365.7 479 388.3 487 411.2 489C434 491 457 487 480 481.8C503 476.7 526 470.3 548.8 470.3C571.7 470.3 594.3 476.7 617.2 479.2C640 481.7 663 480.3 685.8 481.8C708.7 483.3 731.3 487.7 754.2 486.7C777 485.7 800 479.3 822.8 474.8C845.7 470.3 868.3 467.7 891.2 467C914 466.3 937 467.7 948.5 468.3L960 469L960 541L948.5 541C937 541 914 541 891.2 541C868.3 541 845.7 541 822.8 541C800 541 777 541 754.2 541C731.3 541 708.7 541 685.8 541C663 541 640 541 617.2 541C594.3 541 571.7 541 548.8 541C526 541 503 541 480 541C457 541 434 541 411.2 541C388.3 541 365.7 541 342.8 541C320 541 297 541 274.2 541C251.3 541 228.7 541 205.8 541C183 541 160 541 137.2 541C114.3 541 91.7 541 68.8 541C46 541 23 541 11.5 541L0 541Z" fill="#243b5e"></path><path d="M0 503L11.5 504C23 505 46 507 68.8 506.2C91.7 505.3 114.3 501.7 137.2 501.8C160 502 183 506 205.8 505.7C228.7 505.3 251.3 500.7 274.2 503C297 505.3 320 514.7 342.8 515.2C365.7 515.7 388.3 507.3 411.2 503.7C434 500 457 501 480 503.8C503 506.7 526 511.3 548.8 513C571.7 514.7 594.3 513.3 617.2 513.5C640 513.7 663 515.3 685.8 516C708.7 516.7 731.3 516.3 754.2 514.7C777 513 800 510 822.8 509.8C845.7 509.7 868.3 512.3 891.2 515C914 517.7 937 520.3 948.5 521.7L960 523L960 541L948.5 541C937 541 914 541 891.2 541C868.3 541 845.7 541 822.8 541C800 541 777 541 754.2 541C731.3 541 708.7 541 685.8 541C663 541 640 541 617.2 541C594.3 541 571.7 541 548.8 541C526 541 503 541 480 541C457 541 434 541 411.2 541C388.3 541 365.7 541 342.8 541C320 541 297 541 274.2 541C251.3 541 228.7 541 205.8 541C183 541 160 541 137.2 541C114.3 541 91.7 541 68.8 541C46 541 23 541 11.5 541L0 541Z" fill="#15122b"></path></svg>