<svg id="visual" viewBox="0 0 960 200" width="960" height="200" xmlns="http://www.w3.org/2000/svg" xmlns:xlink="http://www.w3.org/1999/xlink" version="1.1"><rect x="0" y="0" width="960" height="200" fill="#111415"></rect><path d="M0 75L13.3 75.3C26.7 75.7 53.3 76.3 80 75.5C106.7 74.7 133.3 72.3 160 75.3C186.7 78.3 213.3 86.7 240 94C266.7 101.3 293.3 107.7 320 108C346.7 108.3 373.3 102.7 400 93.5C426.7 84.3 453.3 71.7 480 68.5C506.7 65.3 533.3 71.7 560 82.7C586.7 93.7 613.3 109.3 640 116C666.7 122.7 693.3 120.3 720 109.3C746.7 98.3 773.3 78.7 800 75.8C826.7 73 853.3 87 880 93.3C906.7 99.7 933.3 98.3 946.7 97.7L960 97L960 201L946.7 201C933.3 201 906.7 201 880 201C853.3 201 826.7 201 800 201C773.3 201 746.7 201 720 201C693.3 201 666.7 201 640 201C613.3 201 586.7 201 560 201C533.3 201 506.7 201 480 201C453.3 201 426.7 201 400 201C373.3 201 346.7 201 320 201C293.3 201 266.7 201 240 201C213.3 201 186.7 201 160 201C133.3 201 106.7 201 80 201C53.3 201 26.7 201 13.3 201L0 201Z" fill="#286a91"></path><path d="M0 91L13.3 99C26.7 107 53.3 123 80 128C106.7 133 133.3 127 160 123C186.7 119 213.3 117 240 119C266.7 121 293.3 127 320 130.5C346.7 134 373.3 135 400 131.5C426.7 128 453.3 120 480 117.7C506.7 115.3 533.3 118.7 560 115.3C586.7 112 613.3 102 640 101.5C666.7 101 693.3 110 720 109.7C746.7 109.3 773.3 99.7 800 94.5C826.7 89.3 853.3 88.7 880 92.2C906.7 95.7 933.3 103.3 946.7 107.2L960 111L960 201L946.7 201C933.3 201 906.7 201 880 201C853.3 201 826.7 201 800 201C773.3 201 746.7 201 720 201C693.3 201 666.7 201 640 201C613.3 201 586.7 201 560 201C533.3 201 506.7 201 480 201C453.3 201 426.7 201 400 201C373.3 201 346.7 201 320 201C293.3 201 266.7 201 240 201C213.3 201 186.7 201 160 201C133.3 201 106.7 201 80 201C53.3 201 26.7 201 13.3 201L0 201Z" fill="#28577d"></path><path d="M0 141L13.3 142.3C26.7 143.7 53.3 146.3 80 143.8C106.7 141.3 133.3 133.7 160 130.3C186.7 127 213.3 128 240 126.3C266.7 124.7 293.3 120.3 320 117.7C346.7 115 373.3 114 400 117.5C426.7 121 453.3 129 480 132.5C506.7 136 533.3 135 560 137.2C586.7 139.3 613.3 144.7 640 140.5C666.7 136.3 693.3 122.7 720 121.7C746.7 120.7 773.3 132.3 800 134.7C826.7 137 853.3 130 880 129C906.7 128 933.3 133 946.7 135.5L960 138L960 201L946.7 201C933.3 201 906.7 201 880 201C853.3 201 826.7 201 800 201C773.3 201 746.7 201 720 201C693.3 201 666.7 201 640 201C613.3 201 586.7 201 560 201C533.3 201 506.7 201 480 201C453.3 201 426.7 201 400 201C373.3 201 346.7 201 320 201C293.3 201 266.7 201 240 201C213.3 201 186.7 201 160 201C133.3 201 106.7 201 80 201C53.3 201 26.7 201 13.3 201L0 201Z" fill="#264468"></path><path d="M0 165L13.3 158.5C26.7 152 53.3 139 80 133.7C106.7 128.3 133.3 130.7 160 137C186.7 143.3 213.3 153.7 240 151.3C266.7 149 293.3 134 320 130.3C346.7 126.7 373.3 134.3 400 136.7C426.7 139 453.3 136 480 139.5C506.7 143 533.3 153 560 153C586.7 153 613.3 143 640 142.5C666.7 142 693.3 151 720 153.5C746.7 156 773.3 152 800 145C826.7 138 853.3 128 880 125.5C906.7 123 933.3 128 946.7 130.5L960 133L960 201L946.7 201C933.3 201 906.7 201 880 201C853.3 201 826.7 201 800 201C773.3 201 746.7 201 720 201C693.3 201 666.7 201 640 201C613.3 201 586.7 201 560 201C533.3 201 506.7 201 480 201C453.3 201 426.7 201 400 201C373.3 201 346.7 201 320 201C293.3 201 266.7 201 240 201C213.3 201 186.7 201 160 201C133.3 201 106.7 201 80 201C53.3 201 26.7 201 13.3 201L0 201Z" fill="#223254"></path><path d="M0 170L13.3 170.7C26.7 171.3 53.3 172.7 80 170.3C106.7 168 133.3 162 160 158.3C186.7 154.7 213.3 153.3 240 156.5C266.7 159.7 293.3 167.3 320 168.8C346.7 170.3 373.3 165.7 400 162.3C426.7 159 453.3 157 480 153.3C506.7 149.7 533.3 144.3 560 142.5C586.7 140.7 613.3 142.3 640 148.2C666.7 154 693.3 164 720 169.2C746.7 174.3 773.3 174.7 800 170.8C826.7 167 853.3 159 880 158.7C906.7 158.3 933.3 165.7 946.7 169.3L960 173L960 201L946.7 201C933.3 201 906.7 201 880 201C853.3 201 826.7 201 800 201C773.3 201 746.7 201 720 201C693.3 201 666.7 201 640 201C613.3 201 586.7 201 560 201C533.3 201 506.7 201 480 201C453.3 201 426.7 201 400 201C373.3 201 346.7 201 320 201C293.3 201 266.7 201 240 201C213.3 201 186.7 201 160 201C133.3 201 106.7 201 80 201C53.3 201 26.7 201 13.3 201L0 201Z" fill="#1c223f"></path><path d="M0 182L13.3 178.8C26.7 175.7 53.3 169.3 80 166.5C106.7 163.7 133.3 164.3 160 164.7C186.7 165 213.3 165 240 166.2C266.7 167.3 293.3 169.7 320 172.2C346.7 174.7 373.3 177.3 400 180.3C426.7 183.3 453.3 186.7 480 187C506.7 187.3 533.3 184.7 560 179.8C586.7 175 613.3 168 640 165.3C666.7 162.7 693.3 164.3 720 165C746.7 165.7 773.3 165.3 800 164.5C826.7 163.7 853.3 162.3 880 162C906.7 161.7 933.3 162.3 946.7 162.7L960 163L960 201L946.7 201C933.3 201 906.7 201 880 201C853.3 201 826.7 201 800 201C773.3 201 746.7 201 720 201C693.3 201 666.7 201 640 201C613.3 201 586.7 201 560 201C533.3 201 506.7 201 480 201C453.3 201 426.7 201 400 201C373.3 201 346.7 201 320 201C293.3 201 266.7 201 240 201C213.3 201 186.7 201 160 201C133.3 201 106.7 201 80 201C53.3 201 26.7 201 13.3 201L0 201Z" fill="#15122b"></path></svg>