<svg id="visual" viewBox="0 0 960 200" width="960" height="200" xmlns="http://www.w3.org/2000/svg" xmlns:xlink="http://www.w3.org/1999/xlink" version="1.1"><rect x="0" y="0" width="960" height="200" fill="#111415"></rect><path d="M0 62L13.3 68.2C26.7 74.3 53.3 86.7 80 88.2C106.7 89.7 133.3 80.3 160 75C186.7 69.7 213.3 68.3 240 71.8C266.7 75.3 293.3 83.7 320 86.5C346.7 89.3 373.3 86.7 400 84.3C426.7 82 453.3 80 480 78C506.7 76 533.3 74 560 71.7C586.7 69.3 613.3 66.7 640 65.3C666.7 64 693.3 64 720 65.5C746.7 67 773.3 70 800 68.5C826.7 67 853.3 61 880 66.3C906.7 71.7 933.3 88.3 946.7 96.7L960 105L960 201L946.7 201C933.3 201 906.7 201 880 201C853.3 201 826.7 201 800 201C773.3 201 746.7 201 720 201C693.3 201 666.7 201 640 201C613.3 201 586.7 201 560 201C533.3 201 506.7 201 480 201C453.3 201 426.7 201 400 201C373.3 201 346.7 201 320 201C293.3 201 266.7 201 240 201C213.3 201 186.7 201 160 201C133.3 201 106.7 201 80 201C53.3 201 26.7 201 13.3 201L0 201Z" fill="#286a91"></path><path d="M0 91L13.3 95.2C26.7 99.3 53.3 107.7 80 106.3C106.7 105 133.3 94 160 91.8C186.7 89.7 213.3 96.3 240 96.8C266.7 97.3 293.3 91.7 320 87.5C346.7 83.3 373.3 80.7 400 79C426.7 77.3 453.3 76.7 480 76.7C506.7 76.7 533.3 77.3 560 77.3C586.7 77.3 613.3 76.7 640 84.3C666.7 92 693.3 108 720 111.5C746.7 115 773.3 106 800 100.5C826.7 95 853.3 93 880 90.3C906.7 87.7 933.3 84.3 946.7 82.7L960 81L960 201L946.7 201C933.3 201 906.7 201 880 201C853.3 201 826.7 201 800 201C773.3 201 746.7 201 720 201C693.3 201 666.7 201 640 201C613.3 201 586.7 201 560 201C533.3 201 506.7 201 480 201C453.3 201 426.7 201 400 201C373.3 201 346.7 201 320 201C293.3 201 266.7 201 240 201C213.3 201 186.7 201 160 201C133.3 201 106.7 201 80 201C53.3 201 26.7 201 13.3 201L0 201Z" fill="#28577d"></path><path d="M0 120L13.3 117.5C26.7 115 53.3 110 80 114.7C106.7 119.3 133.3 133.7 160 141.5C186.7 149.3 213.3 150.7 240 149.3C266.7 148 293.3 144 320 143.7C346.7 143.3 373.3 146.7 400 147C426.7 147.3 453.3 144.7 480 141.2C506.7 137.7 533.3 133.3 560 130.2C586.7 127 613.3 125 640 124.2C666.7 123.3 693.3 123.7 720 127.2C746.7 130.7 773.3 137.3 800 133.8C826.7 130.3 853.3 116.7 880 116.8C906.7 117 933.3 131 946.7 138L960 145L960 201L946.7 201C933.3 201 906.7 201 880 201C853.3 201 826.7 201 800 201C773.3 201 746.7 201 720 201C693.3 201 666.7 201 640 201C613.3 201 586.7 201 560 201C533.3 201 506.7 201 480 201C453.3 201 426.7 201 400 201C373.3 201 346.7 201 320 201C293.3 201 266.7 201 240 201C213.3 201 186.7 201 160 201C133.3 201 106.7 201 80 201C53.3 201 26.7 201 13.3 201L0 201Z" fill="#264468"></path><path d="M0 149L13.3 146.7C26.7 144.3 53.3 139.7 80 141.8C106.7 144 133.3 153 160 154.7C186.7 156.3 213.3 150.7 240 148.2C266.7 145.7 293.3 146.3 320 149C346.7 151.7 373.3 156.3 400 153.2C426.7 150 453.3 139 480 136.8C506.7 134.7 533.3 141.3 560 143.2C586.7 145 613.3 142 640 137.8C666.7 133.7 693.3 128.3 720 126.5C746.7 124.7 773.3 126.3 800 130.5C826.7 134.7 853.3 141.3 880 143.2C906.7 145 933.3 142 946.7 140.5L960 139L960 201L946.7 201C933.3 201 906.7 201 880 201C853.3 201 826.7 201 800 201C773.3 201 746.7 201 720 201C693.3 201 666.7 201 640 201C613.3 201 586.7 201 560 201C533.3 201 506.7 201 480 201C453.3 201 426.7 201 400 201C373.3 201 346.7 201 320 201C293.3 201 266.7 201 240 201C213.3 201 186.7 201 160 201C133.3 201 106.7 201 80 201C53.3 201 26.7 201 13.3 201L0 201Z" fill="#223254"></path><path d="M0 157L13.3 156.7C26.7 156.3 53.3 155.7 80 153.7C106.7 151.7 133.3 148.3 160 150.3C186.7 152.3 213.3 159.7 240 161.3C266.7 163 293.3 159 320 156C346.7 153 373.3 151 400 153C426.7 155 453.3 161 480 163.8C506.7 166.7 533.3 166.3 560 167.7C586.7 169 613.3 172 640 172.3C666.7 172.7 693.3 170.3 720 165.8C746.7 161.3 773.3 154.7 800 152.2C826.7 149.7 853.3 151.3 880 154.8C906.7 158.3 933.3 163.7 946.7 166.3L960 169L960 201L946.7 201C933.3 201 906.7 201 880 201C853.3 201 826.7 201 800 201C773.3 201 746.7 201 720 201C693.3 201 666.7 201 640 201C613.3 201 586.7 201 560 201C533.3 201 506.7 201 480 201C453.3 201 426.7 201 400 201C373.3 201 346.7 201 320 201C293.3 201 266.7 201 240 201C213.3 201 186.7 201 160 201C133.3 201 106.7 201 80 201C53.3 201 26.7 201 13.3 201L0 201Z" fill="#1c223f"></path><path d="M0 191L13.3 188.7C26.7 186.3 53.3 181.7 80 179.3C106.7 177 133.3 177 160 178.3C186.7 179.7 213.3 182.3 240 180C266.7 177.7 293.3 170.3 320 171.5C346.7 172.7 373.3 182.3 400 182.3C426.7 182.3 453.3 172.7 480 167.5C506.7 162.3 533.3 161.7 560 166.3C586.7 171 613.3 181 640 183.7C666.7 186.3 693.3 181.7 720 177.5C746.7 173.3 773.3 169.7 800 171.8C826.7 174 853.3 182 880 184.3C906.7 186.7 933.3 183.3 946.7 181.7L960 180L960 201L946.7 201C933.3 201 906.7 201 880 201C853.3 201 826.7 201 800 201C773.3 201 746.7 201 720 201C693.3 201 666.7 201 640 201C613.3 201 586.7 201 560 201C533.3 201 506.7 201 480 201C453.3 201 426.7 201 400 201C373.3 201 346.7 201 320 201C293.3 201 266.7 201 240 201C213.3 201 186.7 201 160 201C133.3 201 106.7 201 80 201C53.3 201 26.7 201 13.3 201L0 201Z" fill="#15122b"></path></svg>