<svg id="visual" viewBox="0 0 960 540" width="960" height="540" xmlns="http://www.w3.org/2000/svg" xmlns:xlink="http://www.w3.org/1999/xlink" version="1.1"><rect x="0" y="0" width="960" height="540" fill="#c1d2d7"></rect><path d="M0 126L17.8 132.3C35.7 138.7 71.3 151.3 106.8 145.3C142.3 139.3 177.7 114.7 213.2 114.3C248.7 114 284.3 138 320 132.8C355.7 127.7 391.3 93.3 426.8 85.8C462.3 78.3 497.7 97.7 533.2 114.5C568.7 131.3 604.3 145.7 640 154C675.7 162.3 711.3 164.7 746.8 156C782.3 147.3 817.7 127.7 853.2 122.2C888.7 116.7 924.3 125.3 942.2 129.7L960 134L960 0L942.2 0C924.3 0 888.7 0 853.2 0C817.7 0 782.3 0 746.8 0C711.3 0 675.7 0 640 0C604.3 0 568.7 0 533.2 0C497.7 0 462.3 0 426.8 0C391.3 0 355.7 0 320 0C284.3 0 248.7 0 213.2 0C177.7 0 142.3 0 106.8 0C71.3 0 35.7 0 17.8 0L0 0Z" fill="#286a91" stroke-linecap="round" stroke-linejoin="miter"></path></svg>