<svg id="visual" viewBox="0 0 960 540" width="960" height="540" xmlns="http://www.w3.org/2000/svg" xmlns:xlink="http://www.w3.org/1999/xlink" version="1.1"><rect x="0" y="0" width="960" height="540" fill="#c1d2d7"></rect><path d="M0 131L17.8 122.5C35.7 114 71.3 97 106.8 95C142.3 93 177.7 106 213.2 103.3C248.7 100.7 284.3 82.3 320 86.8C355.7 91.3 391.3 118.7 426.8 127.5C462.3 136.3 497.7 126.7 533.2 113.3C568.7 100 604.3 83 640 78C675.7 73 711.3 80 746.8 86C782.3 92 817.7 97 853.2 94.5C888.7 92 924.3 82 942.2 77L960 72L960 0L942.2 0C924.3 0 888.7 0 853.2 0C817.7 0 782.3 0 746.8 0C711.3 0 675.7 0 640 0C604.3 0 568.7 0 533.2 0C497.7 0 462.3 0 426.8 0C391.3 0 355.7 0 320 0C284.3 0 248.7 0 213.2 0C177.7 0 142.3 0 106.8 0C71.3 0 35.7 0 17.8 0L0 0Z" fill="#286a91" stroke-linecap="round" stroke-linejoin="miter"></path></svg>