<svg id="visual" viewBox="0 0 960 540" width="960" height="540" xmlns="http://www.w3.org/2000/svg" xmlns:xlink="http://www.w3.org/1999/xlink" version="1.1"><rect x="0" y="0" width="960" height="540" fill="#c1d2d7"></rect><path d="M0 77L17.8 87.8C35.7 98.7 71.3 120.3 106.8 135.7C142.3 151 177.7 160 213.2 145.2C248.7 130.3 284.3 91.7 320 78.2C355.7 64.7 391.3 76.3 426.8 80.8C462.3 85.3 497.7 82.7 533.2 88C568.7 93.3 604.3 106.7 640 104.7C675.7 102.7 711.3 85.3 746.8 85.3C782.3 85.3 817.7 102.7 853.2 115.7C888.7 128.7 924.3 137.3 942.2 141.7L960 146L960 0L942.2 0C924.3 0 888.7 0 853.2 0C817.7 0 782.3 0 746.8 0C711.3 0 675.7 0 640 0C604.3 0 568.7 0 533.2 0C497.7 0 462.3 0 426.8 0C391.3 0 355.7 0 320 0C284.3 0 248.7 0 213.2 0C177.7 0 142.3 0 106.8 0C71.3 0 35.7 0 17.8 0L0 0Z" fill="#286a91" stroke-linecap="round" stroke-linejoin="miter"></path></svg>