<svg id="visual" viewBox="0 0 960 540" width="960" height="540" xmlns="http://www.w3.org/2000/svg" xmlns:xlink="http://www.w3.org/1999/xlink" version="1.1"><rect x="0" y="0" width="960" height="540" fill="#c1d2d7"></rect><path d="M0 121L17.8 126.7C35.7 132.3 71.3 143.7 106.8 132C142.3 120.3 177.7 85.7 213.2 67.7C248.7 49.7 284.3 48.3 320 64C355.7 79.7 391.3 112.3 426.8 119.5C462.3 126.7 497.7 108.3 533.2 94.7C568.7 81 604.3 72 640 80.2C675.7 88.3 711.3 113.7 746.8 130.5C782.3 147.3 817.7 155.7 853.2 159.8C888.7 164 924.3 164 942.2 164L960 164L960 0L942.2 0C924.3 0 888.7 0 853.2 0C817.7 0 782.3 0 746.8 0C711.3 0 675.7 0 640 0C604.3 0 568.7 0 533.2 0C497.7 0 462.3 0 426.8 0C391.3 0 355.7 0 320 0C284.3 0 248.7 0 213.2 0C177.7 0 142.3 0 106.8 0C71.3 0 35.7 0 17.8 0L0 0Z" fill="#286a91" stroke-linecap="round" stroke-linejoin="miter"></path></svg>