<svg id="visual" viewBox="0 0 960 540" width="960" height="540" xmlns="http://www.w3.org/2000/svg" xmlns:xlink="http://www.w3.org/1999/xlink" version="1.1"><rect x="0" y="0" width="960" height="540" fill="#c1d2d7"></rect><path d="M0 86L17.8 79C35.7 72 71.3 58 106.8 62.3C142.3 66.7 177.7 89.3 213.2 110C248.7 130.7 284.3 149.3 320 155C355.7 160.7 391.3 153.3 426.8 143.5C462.3 133.7 497.7 121.3 533.2 122.8C568.7 124.3 604.3 139.7 640 143.2C675.7 146.7 711.3 138.3 746.8 128.2C782.3 118 817.7 106 853.2 112.3C888.7 118.7 924.3 143.3 942.2 155.7L960 168L960 0L942.2 0C924.3 0 888.7 0 853.2 0C817.7 0 782.3 0 746.8 0C711.3 0 675.7 0 640 0C604.3 0 568.7 0 533.2 0C497.7 0 462.3 0 426.8 0C391.3 0 355.7 0 320 0C284.3 0 248.7 0 213.2 0C177.7 0 142.3 0 106.8 0C71.3 0 35.7 0 17.8 0L0 0Z" fill="#286a91" stroke-linecap="round" stroke-linejoin="miter"></path></svg>