<svg id="visual" viewBox="0 0 280 400" width="280" height="400" xmlns="http://www.w3.org/2000/svg" xmlns:xlink="http://www.w3.org/1999/xlink" version="1.1"><rect x="0" y="0" width="280" height="400" fill="#c1d2d7"></rect><path d="M0 112L6.7 113.5C13.3 115 26.7 118 40 110C53.3 102 66.7 83 80 78.3C93.3 73.7 106.7 83.3 120 83.5C133.3 83.7 146.7 74.3 160 81.5C173.3 88.7 186.7 112.3 200 113.3C213.3 114.3 226.7 92.7 240 88.2C253.3 83.7 266.7 96.3 273.3 102.7L280 109L280 0L273.3 0C266.7 0 253.3 0 240 0C226.7 0 213.3 0 200 0C186.7 0 173.3 0 160 0C146.7 0 133.3 0 120 0C106.7 0 93.3 0 80 0C66.7 0 53.3 0 40 0C26.7 0 13.3 0 6.7 0L0 0Z" fill="#286a91" stroke-linecap="round" stroke-linejoin="miter"></path></svg>