<svg id="visual" viewBox="0 0 960 200" width="960" height="200" xmlns="http://www.w3.org/2000/svg" xmlns:xlink="http://www.w3.org/1999/xlink" version="1.1"><rect x="0" y="0" width="960" height="200" fill="#c1d2d7"></rect><path d="M0 103L13.3 106.3C26.7 109.7 53.3 116.3 80 119.5C106.7 122.7 133.3 122.3 160 117C186.7 111.7 213.3 101.3 240 97.5C266.7 93.7 293.3 96.3 320 100.3C346.7 104.3 373.3 109.7 400 106.5C426.7 103.3 453.3 91.7 480 88.8C506.7 86 533.3 92 560 97.2C586.7 102.3 613.3 106.7 640 107C666.7 107.3 693.3 103.7 720 101.8C746.7 100 773.3 100 800 92.8C826.7 85.7 853.3 71.3 880 75.7C906.7 80 933.3 103 946.7 114.5L960 126L960 201L946.7 201C933.3 201 906.7 201 880 201C853.3 201 826.7 201 800 201C773.3 201 746.7 201 720 201C693.3 201 666.7 201 640 201C613.3 201 586.7 201 560 201C533.3 201 506.7 201 480 201C453.3 201 426.7 201 400 201C373.3 201 346.7 201 320 201C293.3 201 266.7 201 240 201C213.3 201 186.7 201 160 201C133.3 201 106.7 201 80 201C53.3 201 26.7 201 13.3 201L0 201Z" fill="#8c81cc"></path><path d="M0 79L13.3 83C26.7 87 53.3 95 80 105C106.7 115 133.3 127 160 132.3C186.7 137.7 213.3 136.3 240 132.3C266.7 128.3 293.3 121.7 320 120.3C346.7 119 373.3 123 400 124.8C426.7 126.7 453.3 126.3 480 122.3C506.7 118.3 533.3 110.7 560 103C586.7 95.3 613.3 87.7 640 87C666.7 86.3 693.3 92.7 720 99C746.7 105.3 773.3 111.7 800 117C826.7 122.3 853.3 126.7 880 128.7C906.7 130.7 933.3 130.3 946.7 130.2L960 130L960 201L946.7 201C933.3 201 906.7 201 880 201C853.3 201 826.7 201 800 201C773.3 201 746.7 201 720 201C693.3 201 666.7 201 640 201C613.3 201 586.7 201 560 201C533.3 201 506.7 201 480 201C453.3 201 426.7 201 400 201C373.3 201 346.7 201 320 201C293.3 201 266.7 201 240 201C213.3 201 186.7 201 160 201C133.3 201 106.7 201 80 201C53.3 201 26.7 201 13.3 201L0 201Z" fill="#747ec4"></path><path d="M0 137L13.3 136C26.7 135 53.3 133 80 134C106.7 135 133.3 139 160 137C186.7 135 213.3 127 240 125.7C266.7 124.3 293.3 129.7 320 127.8C346.7 126 373.3 117 400 112.3C426.7 107.7 453.3 107.3 480 111.3C506.7 115.3 533.3 123.7 560 130C586.7 136.3 613.3 140.7 640 139C666.7 137.3 693.3 129.7 720 131C746.7 132.3 773.3 142.7 800 144.2C826.7 145.7 853.3 138.3 880 133C906.7 127.7 933.3 124.3 946.7 122.7L960 121L960 201L946.7 201C933.3 201 906.7 201 880 201C853.3 201 826.7 201 800 201C773.3 201 746.7 201 720 201C693.3 201 666.7 201 640 201C613.3 201 586.7 201 560 201C533.3 201 506.7 201 480 201C453.3 201 426.7 201 400 201C373.3 201 346.7 201 320 201C293.3 201 266.7 201 240 201C213.3 201 186.7 201 160 201C133.3 201 106.7 201 80 201C53.3 201 26.7 201 13.3 201L0 201Z" fill="#5e7ab9"></path><path d="M0 134L13.3 135C26.7 136 53.3 138 80 135.7C106.7 133.3 133.3 126.7 160 128.8C186.7 131 213.3 142 240 146.5C266.7 151 293.3 149 320 143.3C346.7 137.7 373.3 128.3 400 124.2C426.7 120 453.3 121 480 122.3C506.7 123.7 533.3 125.3 560 126C586.7 126.7 613.3 126.3 640 125.5C666.7 124.7 693.3 123.3 720 125.3C746.7 127.3 773.3 132.7 800 134.8C826.7 137 853.3 136 880 134.8C906.7 133.7 933.3 132.3 946.7 131.7L960 131L960 201L946.7 201C933.3 201 906.7 201 880 201C853.3 201 826.7 201 800 201C773.3 201 746.7 201 720 201C693.3 201 666.7 201 640 201C613.3 201 586.7 201 560 201C533.3 201 506.7 201 480 201C453.3 201 426.7 201 400 201C373.3 201 346.7 201 320 201C293.3 201 266.7 201 240 201C213.3 201 186.7 201 160 201C133.3 201 106.7 201 80 201C53.3 201 26.7 201 13.3 201L0 201Z" fill="#4976ad"></path><path d="M0 153L13.3 153.3C26.7 153.7 53.3 154.3 80 155.3C106.7 156.3 133.3 157.7 160 156.7C186.7 155.7 213.3 152.3 240 151.7C266.7 151 293.3 153 320 156.2C346.7 159.3 373.3 163.7 400 167.2C426.7 170.7 453.3 173.3 480 171.8C506.7 170.3 533.3 164.7 560 164.5C586.7 164.3 613.3 169.7 640 168.2C666.7 166.7 693.3 158.3 720 158C746.7 157.7 773.3 165.3 800 168C826.7 170.7 853.3 168.3 880 168.2C906.7 168 933.3 170 946.7 171L960 172L960 201L946.7 201C933.3 201 906.7 201 880 201C853.3 201 826.7 201 800 201C773.3 201 746.7 201 720 201C693.3 201 666.7 201 640 201C613.3 201 586.7 201 560 201C533.3 201 506.7 201 480 201C453.3 201 426.7 201 400 201C373.3 201 346.7 201 320 201C293.3 201 266.7 201 240 201C213.3 201 186.7 201 160 201C133.3 201 106.7 201 80 201C53.3 201 26.7 201 13.3 201L0 201Z" fill="#37709f"></path><path d="M0 176L13.3 173.3C26.7 170.7 53.3 165.3 80 166C106.7 166.7 133.3 173.3 160 177.3C186.7 181.3 213.3 182.7 240 180.2C266.7 177.7 293.3 171.3 320 170.3C346.7 169.3 373.3 173.7 400 173.8C426.7 174 453.3 170 480 171C506.7 172 533.3 178 560 181.5C586.7 185 613.3 186 640 184.7C666.7 183.3 693.3 179.7 720 179C746.7 178.3 773.3 180.7 800 178.7C826.7 176.7 853.3 170.3 880 168.5C906.7 166.7 933.3 169.3 946.7 170.7L960 172L960 201L946.7 201C933.3 201 906.7 201 880 201C853.3 201 826.7 201 800 201C773.3 201 746.7 201 720 201C693.3 201 666.7 201 640 201C613.3 201 586.7 201 560 201C533.3 201 506.7 201 480 201C453.3 201 426.7 201 400 201C373.3 201 346.7 201 320 201C293.3 201 266.7 201 240 201C213.3 201 186.7 201 160 201C133.3 201 106.7 201 80 201C53.3 201 26.7 201 13.3 201L0 201Z" fill="#286a91"></path></svg>