<svg id="visual" viewBox="0 0 280 400" width="280" height="400" xmlns="http://www.w3.org/2000/svg" xmlns:xlink="http://www.w3.org/1999/xlink" version="1.1"><rect x="0" y="0" width="280" height="400" fill="#c1d2d7"></rect><path d="M0 103L6.7 96.2C13.3 89.3 26.7 75.7 40 78.5C53.3 81.3 66.7 100.7 80 109.2C93.3 117.7 106.7 115.3 120 108.5C133.3 101.7 146.7 90.3 160 82.3C173.3 74.3 186.7 69.7 200 82.5C213.3 95.3 226.7 125.7 240 132C253.3 138.3 266.7 120.7 273.3 111.8L280 103L280 0L273.3 0C266.7 0 253.3 0 240 0C226.7 0 213.3 0 200 0C186.7 0 173.3 0 160 0C146.7 0 133.3 0 120 0C106.7 0 93.3 0 80 0C66.7 0 53.3 0 40 0C26.7 0 13.3 0 6.7 0L0 0Z" fill="#286a91" stroke-linecap="round" stroke-linejoin="miter"></path></svg>