<svg id="visual" viewBox="0 0 960 540" width="960" height="540" xmlns="http://www.w3.org/2000/svg" xmlns:xlink="http://www.w3.org/1999/xlink" version="1.1"><rect x="0" y="0" width="960" height="540" fill="#c1d2d7"></rect><path d="M0 446L12.3 434C24.7 422 49.3 398 74 382.3C98.7 366.7 123.3 359.3 148 350C172.7 340.7 197.3 329.3 221.8 330C246.3 330.7 270.7 343.3 295.2 343.7C319.7 344 344.3 332 369 333C393.7 334 418.3 348 443 369.8C467.7 391.7 492.3 421.3 517 414C541.7 406.7 566.3 362.3 591 356.5C615.7 350.7 640.3 383.3 664.8 394.8C689.3 406.3 713.7 396.7 738.2 391.8C762.7 387 787.3 387 812 381.3C836.7 375.7 861.3 364.3 886 350.3C910.7 336.3 935.3 319.7 947.7 311.3L960 303L960 541L947.7 541C935.3 541 910.7 541 886 541C861.3 541 836.7 541 812 541C787.3 541 762.7 541 738.2 541C713.7 541 689.3 541 664.8 541C640.3 541 615.7 541 591 541C566.3 541 541.7 541 517 541C492.3 541 467.7 541 443 541C418.3 541 393.7 541 369 541C344.3 541 319.7 541 295.2 541C270.7 541 246.3 541 221.8 541C197.3 541 172.7 541 148 541C123.3 541 98.7 541 74 541C49.3 541 24.7 541 12.3 541L0 541Z" fill="#8c81cc"></path><path d="M0 366L12.3 368.3C24.7 370.7 49.3 375.3 74 379.5C98.7 383.7 123.3 387.3 148 402.8C172.7 418.3 197.3 445.7 221.8 449.5C246.3 453.3 270.7 433.7 295.2 420.7C319.7 407.7 344.3 401.3 369 407.7C393.7 414 418.3 433 443 440C467.7 447 492.3 442 517 437C541.7 432 566.3 427 591 426.5C615.7 426 640.3 430 664.8 427.8C689.3 425.7 713.7 417.3 738.2 408.5C762.7 399.7 787.3 390.3 812 396.2C836.7 402 861.3 423 886 424.2C910.7 425.3 935.3 406.7 947.7 397.3L960 388L960 541L947.7 541C935.3 541 910.7 541 886 541C861.3 541 836.7 541 812 541C787.3 541 762.7 541 738.2 541C713.7 541 689.3 541 664.8 541C640.3 541 615.7 541 591 541C566.3 541 541.7 541 517 541C492.3 541 467.7 541 443 541C418.3 541 393.7 541 369 541C344.3 541 319.7 541 295.2 541C270.7 541 246.3 541 221.8 541C197.3 541 172.7 541 148 541C123.3 541 98.7 541 74 541C49.3 541 24.7 541 12.3 541L0 541Z" fill="#5378b3"></path><path d="M0 478L12.3 474.8C24.7 471.7 49.3 465.3 74 467.5C98.7 469.7 123.3 480.3 148 485.7C172.7 491 197.3 491 221.8 492C246.3 493 270.7 495 295.2 495.8C319.7 496.7 344.3 496.3 369 485.8C393.7 475.3 418.3 454.7 443 446.2C467.7 437.7 492.3 441.3 517 446.8C541.7 452.3 566.3 459.7 591 471.5C615.7 483.3 640.3 499.7 664.8 493.8C689.3 488 713.7 460 738.2 456.8C762.7 453.7 787.3 475.3 812 475.7C836.7 476 861.3 455 886 453.3C910.7 451.7 935.3 469.3 947.7 478.2L960 487L960 541L947.7 541C935.3 541 910.7 541 886 541C861.3 541 836.7 541 812 541C787.3 541 762.7 541 738.2 541C713.7 541 689.3 541 664.8 541C640.3 541 615.7 541 591 541C566.3 541 541.7 541 517 541C492.3 541 467.7 541 443 541C418.3 541 393.7 541 369 541C344.3 541 319.7 541 295.2 541C270.7 541 246.3 541 221.8 541C197.3 541 172.7 541 148 541C123.3 541 98.7 541 74 541C49.3 541 24.7 541 12.3 541L0 541Z" fill="#286a91"></path></svg>