<svg id="visual" viewBox="0 0 280 400" width="280" height="400" xmlns="http://www.w3.org/2000/svg" xmlns:xlink="http://www.w3.org/1999/xlink" version="1.1"><rect x="0" y="0" width="280" height="400" fill="#c1d2d7"></rect><path d="M0 150L6.7 147.3C13.3 144.7 26.7 139.3 40 139.3C53.3 139.3 66.7 144.7 80 136.5C93.3 128.3 106.7 106.7 120 94.3C133.3 82 146.7 79 160 84.5C173.3 90 186.7 104 200 111C213.3 118 226.7 118 240 110.5C253.3 103 266.7 88 273.3 80.5L280 73L280 0L273.3 0C266.7 0 253.3 0 240 0C226.7 0 213.3 0 200 0C186.7 0 173.3 0 160 0C146.7 0 133.3 0 120 0C106.7 0 93.3 0 80 0C66.7 0 53.3 0 40 0C26.7 0 13.3 0 6.7 0L0 0Z" fill="#286a91" stroke-linecap="round" stroke-linejoin="miter"></path></svg>