<svg id="visual" viewBox="0 0 280 400" width="280" height="400" xmlns="http://www.w3.org/2000/svg" xmlns:xlink="http://www.w3.org/1999/xlink" version="1.1"><rect x="0" y="0" width="280" height="400" fill="#c1d2d7"></rect><path d="M0 68L6.7 82.3C13.3 96.7 26.7 125.3 40 130.7C53.3 136 66.7 118 80 105.8C93.3 93.7 106.7 87.3 120 84C133.3 80.7 146.7 80.3 160 90.2C173.3 100 186.7 120 200 121.3C213.3 122.7 226.7 105.3 240 97.3C253.3 89.3 266.7 90.7 273.3 91.3L280 92L280 0L273.3 0C266.7 0 253.3 0 240 0C226.7 0 213.3 0 200 0C186.7 0 173.3 0 160 0C146.7 0 133.3 0 120 0C106.7 0 93.3 0 80 0C66.7 0 53.3 0 40 0C26.7 0 13.3 0 6.7 0L0 0Z" fill="#286a91" stroke-linecap="round" stroke-linejoin="miter"></path></svg>