<svg id="visual" viewBox="0 0 960 200" width="960" height="200" style="transform: rotate(180deg)" xmlns="http://www.w3.org/2000/svg" xmlns:xlink="http://www.w3.org/1999/xlink" version="1.1"><rect x="0" y="0" width="960" height="200" fill="#c1d2d7"></rect><path d="M0 96L13.3 96.3C26.7 96.7 53.3 97.3 80 97.2C106.7 97 133.3 96 160 92.8C186.7 89.7 213.3 84.3 240 88C266.7 91.7 293.3 104.3 320 104.3C346.7 104.3 373.3 91.7 400 85.8C426.7 80 453.3 81 480 85.7C506.7 90.3 533.3 98.7 560 103.5C586.7 108.3 613.3 109.7 640 111.3C666.7 113 693.3 115 720 112.2C746.7 109.3 773.3 101.7 800 95.2C826.7 88.7 853.3 83.3 880 84.7C906.7 86 933.3 94 946.7 98L960 102L960 201L946.7 201C933.3 201 906.7 201 880 201C853.3 201 826.7 201 800 201C773.3 201 746.7 201 720 201C693.3 201 666.7 201 640 201C613.3 201 586.7 201 560 201C533.3 201 506.7 201 480 201C453.3 201 426.7 201 400 201C373.3 201 346.7 201 320 201C293.3 201 266.7 201 240 201C213.3 201 186.7 201 160 201C133.3 201 106.7 201 80 201C53.3 201 26.7 201 13.3 201L0 201Z" fill="#8c81cc"></path><path d="M0 88L13.3 94.8C26.7 101.7 53.3 115.3 80 115.8C106.7 116.3 133.3 103.7 160 103.7C186.7 103.7 213.3 116.3 240 114.5C266.7 112.7 293.3 96.3 320 95.7C346.7 95 373.3 110 400 117.3C426.7 124.7 453.3 124.3 480 121C506.7 117.7 533.3 111.3 560 109.3C586.7 107.3 613.3 109.7 640 105.3C666.7 101 693.3 90 720 88.8C746.7 87.7 773.3 96.3 800 99.5C826.7 102.7 853.3 100.3 880 98.3C906.7 96.3 933.3 94.7 946.7 93.8L960 93L960 201L946.7 201C933.3 201 906.7 201 880 201C853.3 201 826.7 201 800 201C773.3 201 746.7 201 720 201C693.3 201 666.7 201 640 201C613.3 201 586.7 201 560 201C533.3 201 506.7 201 480 201C453.3 201 426.7 201 400 201C373.3 201 346.7 201 320 201C293.3 201 266.7 201 240 201C213.3 201 186.7 201 160 201C133.3 201 106.7 201 80 201C53.3 201 26.7 201 13.3 201L0 201Z" fill="#747ec4"></path><path d="M0 117L13.3 118.8C26.7 120.7 53.3 124.3 80 123.8C106.7 123.3 133.3 118.7 160 122.5C186.7 126.3 213.3 138.7 240 144.8C266.7 151 293.3 151 320 144.3C346.7 137.7 373.3 124.3 400 124C426.7 123.7 453.3 136.3 480 138.5C506.7 140.7 533.3 132.3 560 125.2C586.7 118 613.3 112 640 111.5C666.7 111 693.3 116 720 119.8C746.7 123.7 773.3 126.3 800 122.7C826.7 119 853.3 109 880 104.3C906.7 99.7 933.3 100.3 946.7 100.7L960 101L960 201L946.7 201C933.3 201 906.7 201 880 201C853.3 201 826.7 201 800 201C773.3 201 746.7 201 720 201C693.3 201 666.7 201 640 201C613.3 201 586.7 201 560 201C533.3 201 506.7 201 480 201C453.3 201 426.7 201 400 201C373.3 201 346.7 201 320 201C293.3 201 266.7 201 240 201C213.3 201 186.7 201 160 201C133.3 201 106.7 201 80 201C53.3 201 26.7 201 13.3 201L0 201Z" fill="#5e7ab9"></path><path d="M0 163L13.3 162.2C26.7 161.3 53.3 159.7 80 158.5C106.7 157.3 133.3 156.7 160 155.8C186.7 155 213.3 154 240 149C266.7 144 293.3 135 320 133.3C346.7 131.7 373.3 137.3 400 142.7C426.7 148 453.3 153 480 155.2C506.7 157.3 533.3 156.7 560 154.8C586.7 153 613.3 150 640 144.8C666.7 139.7 693.3 132.3 720 134.8C746.7 137.3 773.3 149.7 800 150.5C826.7 151.3 853.3 140.7 880 135.8C906.7 131 933.3 132 946.7 132.5L960 133L960 201L946.7 201C933.3 201 906.7 201 880 201C853.3 201 826.7 201 800 201C773.3 201 746.7 201 720 201C693.3 201 666.7 201 640 201C613.3 201 586.7 201 560 201C533.3 201 506.7 201 480 201C453.3 201 426.7 201 400 201C373.3 201 346.7 201 320 201C293.3 201 266.7 201 240 201C213.3 201 186.7 201 160 201C133.3 201 106.7 201 80 201C53.3 201 26.7 201 13.3 201L0 201Z" fill="#4976ad"></path><path d="M0 171L13.3 168.5C26.7 166 53.3 161 80 161.8C106.7 162.7 133.3 169.3 160 167.5C186.7 165.7 213.3 155.3 240 149.5C266.7 143.7 293.3 142.3 320 146C346.7 149.7 373.3 158.3 400 160.2C426.7 162 453.3 157 480 152.5C506.7 148 533.3 144 560 148.2C586.7 152.3 613.3 164.7 640 165.2C666.7 165.7 693.3 154.3 720 150C746.7 145.7 773.3 148.3 800 147.8C826.7 147.3 853.3 143.7 880 146C906.7 148.3 933.3 156.7 946.7 160.8L960 165L960 201L946.7 201C933.3 201 906.7 201 880 201C853.3 201 826.7 201 800 201C773.3 201 746.7 201 720 201C693.3 201 666.7 201 640 201C613.3 201 586.7 201 560 201C533.3 201 506.7 201 480 201C453.3 201 426.7 201 400 201C373.3 201 346.7 201 320 201C293.3 201 266.7 201 240 201C213.3 201 186.7 201 160 201C133.3 201 106.7 201 80 201C53.3 201 26.7 201 13.3 201L0 201Z" fill="#37709f"></path><path d="M0 190L13.3 186.7C26.7 183.3 53.3 176.7 80 174C106.7 171.3 133.3 172.7 160 174C186.7 175.3 213.3 176.7 240 177.5C266.7 178.3 293.3 178.7 320 177.5C346.7 176.3 373.3 173.7 400 175.2C426.7 176.7 453.3 182.3 480 181C506.7 179.7 533.3 171.3 560 171C586.7 170.7 613.3 178.3 640 182.2C666.7 186 693.3 186 720 186.5C746.7 187 773.3 188 800 187.5C826.7 187 853.3 185 880 181.8C906.7 178.7 933.3 174.3 946.7 172.2L960 170L960 201L946.7 201C933.3 201 906.7 201 880 201C853.3 201 826.7 201 800 201C773.3 201 746.7 201 720 201C693.3 201 666.7 201 640 201C613.3 201 586.7 201 560 201C533.3 201 506.7 201 480 201C453.3 201 426.7 201 400 201C373.3 201 346.7 201 320 201C293.3 201 266.7 201 240 201C213.3 201 186.7 201 160 201C133.3 201 106.7 201 80 201C53.3 201 26.7 201 13.3 201L0 201Z" fill="#286a91"></path></svg>