<svg id="visual" viewBox="0 0 960 540" width="960" height="540" xmlns="http://www.w3.org/2000/svg" xmlns:xlink="http://www.w3.org/1999/xlink" version="1.1"><rect x="0" y="0" width="960" height="540" fill="#c1d2d7"></rect><path d="M0 328L12.3 345C24.7 362 49.3 396 74 402.5C98.7 409 123.3 388 148 389.5C172.7 391 197.3 415 221.8 407.8C246.3 400.7 270.7 362.3 295.2 344.7C319.7 327 344.3 330 369 345.8C393.7 361.7 418.3 390.3 443 391.5C467.7 392.7 492.3 366.3 517 366.7C541.7 367 566.3 394 591 405.3C615.7 416.7 640.3 412.3 664.8 409.8C689.3 407.3 713.7 406.7 738.2 400.8C762.7 395 787.3 384 812 383.3C836.7 382.7 861.3 392.3 886 401C910.7 409.7 935.3 417.3 947.7 421.2L960 425L960 541L947.7 541C935.3 541 910.7 541 886 541C861.3 541 836.7 541 812 541C787.3 541 762.7 541 738.2 541C713.7 541 689.3 541 664.8 541C640.3 541 615.7 541 591 541C566.3 541 541.7 541 517 541C492.3 541 467.7 541 443 541C418.3 541 393.7 541 369 541C344.3 541 319.7 541 295.2 541C270.7 541 246.3 541 221.8 541C197.3 541 172.7 541 148 541C123.3 541 98.7 541 74 541C49.3 541 24.7 541 12.3 541L0 541Z" fill="#8c81cc"></path><path d="M0 460L12.3 464.2C24.7 468.3 49.3 476.7 74 479.8C98.7 483 123.3 481 148 460.8C172.7 440.7 197.3 402.3 221.8 395C246.3 387.7 270.7 411.3 295.2 424.7C319.7 438 344.3 441 369 435.2C393.7 429.3 418.3 414.7 443 421.2C467.7 427.7 492.3 455.3 517 460.3C541.7 465.3 566.3 447.7 591 435.3C615.7 423 640.3 416 664.8 421C689.3 426 713.7 443 738.2 449.3C762.7 455.7 787.3 451.3 812 439.3C836.7 427.3 861.3 407.7 886 405.7C910.7 403.7 935.3 419.3 947.7 427.2L960 435L960 541L947.7 541C935.3 541 910.7 541 886 541C861.3 541 836.7 541 812 541C787.3 541 762.7 541 738.2 541C713.7 541 689.3 541 664.8 541C640.3 541 615.7 541 591 541C566.3 541 541.7 541 517 541C492.3 541 467.7 541 443 541C418.3 541 393.7 541 369 541C344.3 541 319.7 541 295.2 541C270.7 541 246.3 541 221.8 541C197.3 541 172.7 541 148 541C123.3 541 98.7 541 74 541C49.3 541 24.7 541 12.3 541L0 541Z" fill="#5378b3"></path><path d="M0 508L12.3 500.7C24.7 493.3 49.3 478.7 74 478.3C98.7 478 123.3 492 148 488.8C172.7 485.7 197.3 465.3 221.8 461.5C246.3 457.7 270.7 470.3 295.2 474.8C319.7 479.3 344.3 475.7 369 473.3C393.7 471 418.3 470 443 477.3C467.7 484.7 492.3 500.3 517 505.7C541.7 511 566.3 506 591 497.5C615.7 489 640.3 477 664.8 466.8C689.3 456.7 713.7 448.3 738.2 447C762.7 445.7 787.3 451.3 812 461.3C836.7 471.3 861.3 485.7 886 491C910.7 496.3 935.3 492.7 947.7 490.8L960 489L960 541L947.7 541C935.3 541 910.7 541 886 541C861.3 541 836.7 541 812 541C787.3 541 762.7 541 738.2 541C713.7 541 689.3 541 664.8 541C640.3 541 615.7 541 591 541C566.3 541 541.7 541 517 541C492.3 541 467.7 541 443 541C418.3 541 393.7 541 369 541C344.3 541 319.7 541 295.2 541C270.7 541 246.3 541 221.8 541C197.3 541 172.7 541 148 541C123.3 541 98.7 541 74 541C49.3 541 24.7 541 12.3 541L0 541Z" fill="#286a91"></path></svg>