<svg id="visual" viewBox="0 0 280 400" width="280" height="400" xmlns="http://www.w3.org/2000/svg" xmlns:xlink="http://www.w3.org/1999/xlink" version="1.1"><rect x="0" y="0" width="280" height="400" fill="#c1d2d7"></rect><path d="M0 65L6.7 78.2C13.3 91.3 26.7 117.7 40 131.2C53.3 144.7 66.7 145.3 80 132.3C93.3 119.3 106.7 92.7 120 91.2C133.3 89.7 146.7 113.3 160 115.8C173.3 118.3 186.7 99.7 200 94.5C213.3 89.3 226.7 97.7 240 113.8C253.3 130 266.7 154 273.3 166L280 178L280 0L273.3 0C266.7 0 253.3 0 240 0C226.7 0 213.3 0 200 0C186.7 0 173.3 0 160 0C146.7 0 133.3 0 120 0C106.7 0 93.3 0 80 0C66.7 0 53.3 0 40 0C26.7 0 13.3 0 6.7 0L0 0Z" fill="#286a91" stroke-linecap="round" stroke-linejoin="miter"></path></svg>