<svg id="visual" viewBox="0 0 960 540" width="960" height="540" xmlns="http://www.w3.org/2000/svg" xmlns:xlink="http://www.w3.org/1999/xlink" version="1.1"><rect x="0" y="0" width="960" height="540" fill="#c1d2d7"></rect><path d="M0 415L12.3 418.8C24.7 422.7 49.3 430.3 74 418.3C98.7 406.3 123.3 374.7 148 359.2C172.7 343.7 197.3 344.3 221.8 346.8C246.3 349.3 270.7 353.7 295.2 362.8C319.7 372 344.3 386 369 393C393.7 400 418.3 400 443 384.5C467.7 369 492.3 338 517 346C541.7 354 566.3 401 591 404.7C615.7 408.3 640.3 368.7 664.8 360.7C689.3 352.7 713.7 376.3 738.2 374.8C762.7 373.3 787.3 346.7 812 353.3C836.7 360 861.3 400 886 401.5C910.7 403 935.3 366 947.7 347.5L960 329L960 541L947.7 541C935.3 541 910.7 541 886 541C861.3 541 836.7 541 812 541C787.3 541 762.7 541 738.2 541C713.7 541 689.3 541 664.8 541C640.3 541 615.7 541 591 541C566.3 541 541.7 541 517 541C492.3 541 467.7 541 443 541C418.3 541 393.7 541 369 541C344.3 541 319.7 541 295.2 541C270.7 541 246.3 541 221.8 541C197.3 541 172.7 541 148 541C123.3 541 98.7 541 74 541C49.3 541 24.7 541 12.3 541L0 541Z" fill="#8c81cc"></path><path d="M0 378L12.3 383.2C24.7 388.3 49.3 398.7 74 412.2C98.7 425.7 123.3 442.3 148 441.8C172.7 441.3 197.3 423.7 221.8 416C246.3 408.3 270.7 410.7 295.2 412.8C319.7 415 344.3 417 369 414.7C393.7 412.3 418.3 405.7 443 410.5C467.7 415.3 492.3 431.7 517 445.2C541.7 458.7 566.3 469.3 591 460.3C615.7 451.3 640.3 422.7 664.8 408.5C689.3 394.3 713.7 394.7 738.2 395.5C762.7 396.3 787.3 397.7 812 412C836.7 426.3 861.3 453.7 886 460.2C910.7 466.7 935.3 452.3 947.7 445.2L960 438L960 541L947.7 541C935.3 541 910.7 541 886 541C861.3 541 836.7 541 812 541C787.3 541 762.7 541 738.2 541C713.7 541 689.3 541 664.8 541C640.3 541 615.7 541 591 541C566.3 541 541.7 541 517 541C492.3 541 467.7 541 443 541C418.3 541 393.7 541 369 541C344.3 541 319.7 541 295.2 541C270.7 541 246.3 541 221.8 541C197.3 541 172.7 541 148 541C123.3 541 98.7 541 74 541C49.3 541 24.7 541 12.3 541L0 541Z" fill="#5378b3"></path><path d="M0 505L12.3 494C24.7 483 49.3 461 74 451.7C98.7 442.3 123.3 445.7 148 452.5C172.7 459.3 197.3 469.7 221.8 467.3C246.3 465 270.7 450 295.2 448.3C319.7 446.7 344.3 458.3 369 464.2C393.7 470 418.3 470 443 462.7C467.7 455.3 492.3 440.7 517 438.7C541.7 436.7 566.3 447.3 591 462.7C615.7 478 640.3 498 664.8 495.3C689.3 492.7 713.7 467.3 738.2 453.8C762.7 440.3 787.3 438.7 812 440.2C836.7 441.7 861.3 446.3 886 445.7C910.7 445 935.3 439 947.7 436L960 433L960 541L947.7 541C935.3 541 910.7 541 886 541C861.3 541 836.7 541 812 541C787.3 541 762.7 541 738.2 541C713.7 541 689.3 541 664.8 541C640.3 541 615.7 541 591 541C566.3 541 541.7 541 517 541C492.3 541 467.7 541 443 541C418.3 541 393.7 541 369 541C344.3 541 319.7 541 295.2 541C270.7 541 246.3 541 221.8 541C197.3 541 172.7 541 148 541C123.3 541 98.7 541 74 541C49.3 541 24.7 541 12.3 541L0 541Z" fill="#286a91"></path></svg>