<svg id="visual" viewBox="0 0 280 400" width="280" height="400" xmlns="http://www.w3.org/2000/svg" xmlns:xlink="http://www.w3.org/1999/xlink" version="1.1"><rect x="0" y="0" width="280" height="400" fill="#c1d2d7"></rect><path d="M0 162L6.7 148.7C13.3 135.3 26.7 108.7 40 109.2C53.3 109.7 66.7 137.3 80 150C93.3 162.7 106.7 160.3 120 145.5C133.3 130.7 146.7 103.3 160 105.3C173.3 107.3 186.7 138.7 200 152.3C213.3 166 226.7 162 240 146.5C253.3 131 266.7 104 273.3 90.5L280 77L280 0L273.3 0C266.7 0 253.3 0 240 0C226.7 0 213.3 0 200 0C186.7 0 173.3 0 160 0C146.7 0 133.3 0 120 0C106.7 0 93.3 0 80 0C66.7 0 53.3 0 40 0C26.7 0 13.3 0 6.7 0L0 0Z" fill="#286a91" stroke-linecap="round" stroke-linejoin="miter"></path></svg>