<svg id="visual" viewBox="0 0 960 540" width="960" height="540" xmlns="http://www.w3.org/2000/svg" xmlns:xlink="http://www.w3.org/1999/xlink" version="1.1"><rect x="0" y="0" width="960" height="540" fill="#c1d2d7"></rect><path d="M0 359L12.3 364.7C24.7 370.3 49.3 381.7 74 396.5C98.7 411.3 123.3 429.7 148 437.7C172.7 445.7 197.3 443.3 221.8 423.5C246.3 403.7 270.7 366.3 295.2 366C319.7 365.7 344.3 402.3 369 415.3C393.7 428.3 418.3 417.7 443 409.8C467.7 402 492.3 397 517 402.7C541.7 408.3 566.3 424.7 591 427.8C615.7 431 640.3 421 664.8 409.7C689.3 398.3 713.7 385.7 738.2 373.7C762.7 361.7 787.3 350.3 812 360.8C836.7 371.3 861.3 403.7 886 411.8C910.7 420 935.3 404 947.7 396L960 388L960 541L947.7 541C935.3 541 910.7 541 886 541C861.3 541 836.7 541 812 541C787.3 541 762.7 541 738.2 541C713.7 541 689.3 541 664.8 541C640.3 541 615.7 541 591 541C566.3 541 541.7 541 517 541C492.3 541 467.7 541 443 541C418.3 541 393.7 541 369 541C344.3 541 319.7 541 295.2 541C270.7 541 246.3 541 221.8 541C197.3 541 172.7 541 148 541C123.3 541 98.7 541 74 541C49.3 541 24.7 541 12.3 541L0 541Z" fill="#8c81cc"></path><path d="M0 453L12.3 439.2C24.7 425.3 49.3 397.7 74 393.3C98.7 389 123.3 408 148 425C172.7 442 197.3 457 221.8 446.5C246.3 436 270.7 400 295.2 395.5C319.7 391 344.3 418 369 428.7C393.7 439.3 418.3 433.7 443 422.8C467.7 412 492.3 396 517 387.8C541.7 379.7 566.3 379.3 591 394.3C615.7 409.3 640.3 439.7 664.8 447.8C689.3 456 713.7 442 738.2 444.5C762.7 447 787.3 466 812 472.5C836.7 479 861.3 473 886 458.7C910.7 444.3 935.3 421.7 947.7 410.3L960 399L960 541L947.7 541C935.3 541 910.7 541 886 541C861.3 541 836.7 541 812 541C787.3 541 762.7 541 738.2 541C713.7 541 689.3 541 664.8 541C640.3 541 615.7 541 591 541C566.3 541 541.7 541 517 541C492.3 541 467.7 541 443 541C418.3 541 393.7 541 369 541C344.3 541 319.7 541 295.2 541C270.7 541 246.3 541 221.8 541C197.3 541 172.7 541 148 541C123.3 541 98.7 541 74 541C49.3 541 24.7 541 12.3 541L0 541Z" fill="#5378b3"></path><path d="M0 505L12.3 492C24.7 479 49.3 453 74 453.7C98.7 454.3 123.3 481.7 148 493.7C172.7 505.7 197.3 502.3 221.8 493.3C246.3 484.3 270.7 469.7 295.2 472C319.7 474.3 344.3 493.7 369 494.5C393.7 495.3 418.3 477.7 443 473C467.7 468.3 492.3 476.7 517 480.5C541.7 484.3 566.3 483.7 591 478.7C615.7 473.7 640.3 464.3 664.8 460.7C689.3 457 713.7 459 738.2 455.5C762.7 452 787.3 443 812 452.2C836.7 461.3 861.3 488.7 886 497.7C910.7 506.7 935.3 497.3 947.7 492.7L960 488L960 541L947.7 541C935.3 541 910.7 541 886 541C861.3 541 836.7 541 812 541C787.3 541 762.7 541 738.2 541C713.7 541 689.3 541 664.8 541C640.3 541 615.7 541 591 541C566.3 541 541.7 541 517 541C492.3 541 467.7 541 443 541C418.3 541 393.7 541 369 541C344.3 541 319.7 541 295.2 541C270.7 541 246.3 541 221.8 541C197.3 541 172.7 541 148 541C123.3 541 98.7 541 74 541C49.3 541 24.7 541 12.3 541L0 541Z" fill="#286a91"></path></svg>